<?xml version="1.0" encoding="UTF-8" standalone="no"?>
<!-- Created with Inkscape (http://www.inkscape.org/) -->

<svg
   xmlns:dc="http://purl.org/dc/elements/1.1/"
   xmlns:cc="http://creativecommons.org/ns#"
   xmlns:rdf="http://www.w3.org/1999/02/22-rdf-syntax-ns#"
   xmlns:svg="http://www.w3.org/2000/svg"
   xmlns="http://www.w3.org/2000/svg"
   xmlns:sodipodi="http://sodipodi.sourceforge.net/DTD/sodipodi-0.dtd"
   xmlns:inkscape="http://www.inkscape.org/namespaces/inkscape"
   width="176.38766mm"
   height="176.38551mm"
   viewBox="0 0 176.38766 176.38551"
   version="1.1"
   id="svg9051"
   inkscape:version="0.92.2 (5c3e80d, 2017-08-06)"
   sodipodi:docname="new_icon.svg">
  <defs
     id="defs9045">
    <clipPath
       clipPathUnits="userSpaceOnUse"
       id="clipPath302">
      <path
         d="m 28324.4,56602.9 h -1570.9 v 167.5 l 738.2,911 -697.1,901.5 v 189.9 h 1429 V 58541 h -1075.7 v -12.9 l 649.8,-837 -684.6,-843.6 v -9.5 h 1211.3 z m 168.5,3240 c -48.6,51.9 -96.6,98.5 -143.8,139.6 -71,61.9 -140.4,111.5 -208.3,149.2 -48.3,-67.5 -115.9,-120.1 -195,-149.2 -42.2,-15.8 -87.8,-24.7 -135.5,-25.6 -2.7,-0.1 -5.6,-0.1 -8.4,-0.1 -45.6,0 -89.4,7.2 -130.6,21 -4.5,1.5 -9,3.1 -13.5,4.7 -66.9,24.8 -125.7,66.3 -171.5,119.5 -51.2,-33.6 -102.2,-73.7 -152.8,-119.5 -46.4,-42.2 -92.7,-89 -138.5,-139.6 -248.5,-274.6 -488,-664.5 -723,-1049.4 -4.3,-7 -8.7,-14 -12.9,-21 -23.2,-37.9 -46.3,-75.9 -69.6,-113.9 l -56.5,-92 c -9.8,-16 -19.6,-31.8 -29.5,-47.6 -183.6,-296.1 -373.2,-585.5 -572.6,-816.7 -135.5,-157.4 -269.5,-279.7 -403.2,-367.8 -46.7,-30.6 -93.2,-57.2 -139.7,-79.5 -3.1,-20.5 -7.5,-40.6 -13.5,-60 -10,-32.8 -23.7,-63.8 -41,-92.6 -34.3,-57.7 -82.1,-106.2 -138.9,-141.5 -63.5,-39.2 -138.3,-62 -218.4,-62 -187.5,0 -346.2,124.7 -398.3,296.1 -7.8,25.9 -13.2,52.8 -16,80.6 -33.8,17.6 -67.6,37.2 -101.2,58.9 -153.7,98.4 -308.6,239.6 -460.7,416.1 v -1303.7 c 23.2,-198.8 167.1,-355.1 346.8,-374.3 h 4303.8 c 174.7,18.7 315.6,166.9 344.5,357.7 v 3032 c -103,148.6 -203.9,275.5 -302.2,380.6 z"
         id="path300"
         inkscape:connector-curvature="0" />
    </clipPath>
    <linearGradient
       x1="0"
       y1="0"
       x2="1"
       y2="0"
       gradientUnits="userSpaceOnUse"
       gradientTransform="matrix(4995.14,0,0,-4995.14,23800,58102.1)"
       spreadMethod="pad"
       id="linearGradient312">
      <stop
         style="stop-opacity:1;stop-color:#1d6434"
         offset="0"
         id="stop306" />
      <stop
         style="stop-opacity:1;stop-color:#1d6434"
         offset="0.016129"
         id="stop308" />
      <stop
         style="stop-opacity:1;stop-color:#27963c"
         offset="1"
         id="stop310" />
    </linearGradient>
  </defs>
  <sodipodi:namedview
     id="base"
     pagecolor="#ffffff"
     bordercolor="#666666"
     borderopacity="1.0"
     inkscape:pageopacity="0.0"
     inkscape:pageshadow="2"
     inkscape:zoom="0.35"
     inkscape:cx="-255.24039"
     inkscape:cy="279.04151"
     inkscape:document-units="mm"
     inkscape:current-layer="layer1"
     showgrid="false"
     fit-margin-top="0"
     fit-margin-left="0"
     fit-margin-right="0"
     fit-margin-bottom="0"
     inkscape:window-width="1920"
     inkscape:window-height="1103"
     inkscape:window-x="0"
     inkscape:window-y="27"
     inkscape:window-maximized="1" />
  <metadata
     id="metadata9048">
    <rdf:RDF>
      <cc:Work
         rdf:about="">
        <dc:format>image/svg+xml</dc:format>
        <dc:type
           rdf:resource="http://purl.org/dc/dcmitype/StillImage" />
        <dc:title></dc:title>
      </cc:Work>
    </rdf:RDF>
  </metadata>
  <g
     inkscape:label="Layer 1"
     inkscape:groupmode="layer"
     id="layer1"
     transform="translate(-19.151402,-46.277559)">
    <rect
       style="opacity:0.98999999;fill:#ffffff;fill-opacity:1;stroke:none;stroke-width:6.7957387"
       id="rect9675"
       width="176.00009"
       height="175.99998"
       x="19.649595"
       y="47.578377"
       ry="15.400194" />
    <g
       transform="matrix(0.13217807,0,0,-0.13217807,-820.02415,2201.6955)"
       id="g260">
      <path
         inkscape:connector-curvature="0"
         id="path262"
         style="fill:#1c6434;fill-opacity:1;fill-rule:nonzero;stroke:none"
         d="m 7007.64,16300 v -274.6 h -278.91 v 274.6 h 278.91" />
    </g>
    <g
       transform="matrix(0.12933962,0,0,-0.12933962,-820.02415,2201.6955)"
       id="g264">
      <path
         inkscape:connector-curvature="0"
         id="path266"
         style="fill:#1c6434;fill-opacity:1;fill-rule:nonzero;stroke:none"
         d="m 6799.6,16300 v -282.8 h -308.07 v 282.8 h 308.07" />
    </g>
    <g
       transform="matrix(0.12648353,0,0,-0.12648353,-820.02415,2201.6955)"
       id="g268">
      <path
         inkscape:connector-curvature="0"
         id="path270"
         style="fill:#1c6434;fill-opacity:1;fill-rule:nonzero;stroke:none"
         d="m 6953.15,16300 v -208.4 c -12.89,4.9 -26.81,7.6 -41.39,7.6 -36.43,0 -68.95,-16.8 -90.2,-43.2 -57.68,34.6 -119.02,98.7 -183.44,191.9 v 52.1 h 315.03" />
    </g>
    <g
       transform="matrix(0.12648353,0,0,-0.12648353,-820.02415,2201.6955)"
       id="g272">
      <path
         inkscape:connector-curvature="0"
         id="path274"
         style="fill:#1c6434;fill-opacity:1;fill-rule:nonzero;stroke:none"
         d="m 7224.39,16300 c -62.25,-96.1 -126.07,-182 -192.7,-231 v 231 h 192.7" />
    </g>
    <g
       transform="matrix(0.12933962,0,0,-0.12933962,-820.02415,2201.6955)"
       id="g276">
      <path
         inkscape:connector-curvature="0"
         id="path278"
         style="fill:#1c6434;fill-opacity:1;fill-rule:nonzero;stroke:none"
         d="m 7161.44,16300 v -204.3 c -5.05,-8.3 -10.12,-16.6 -15.14,-24.8 -10.91,-17.9 -21.87,-35.9 -32.89,-53.7 h -237 v 282.8 h 285.03" />
    </g>
    <g
       transform="matrix(0.12933962,0,0,-0.12933962,-820.02415,2201.6955)"
       id="g280">
      <path
         inkscape:connector-curvature="0"
         id="path282"
         style="fill:#1c6434;fill-opacity:1;fill-rule:nonzero;stroke:none"
         d="m 7295.17,16300 c -19.26,-26.1 -38.21,-53.6 -56.92,-82.1 v 82.1 h 56.92" />
    </g>
    <g
       transform="matrix(0.13217807,0,0,-0.13217807,-820.02415,2201.6955)"
       id="g284">
      <path
         inkscape:connector-curvature="0"
         id="path286"
         style="fill:#1c6434;fill-opacity:1;fill-rule:nonzero;stroke:none"
         d="m 7366.69,16300 v -92.8 c -31.54,-18 -53.43,-51 -56.05,-89.4 -36.75,-20.9 -73.5,-51.6 -110.7,-92.4 h -117.15 v 274.6 h 283.9" />
    </g>
    <g
       transform="matrix(0.13217807,0,0,-0.13217807,-820.02415,2201.6955)"
       id="g288">
      <path
         inkscape:connector-curvature="0"
         id="path290"
         style="fill:#1c6434;fill-opacity:1;fill-rule:nonzero;stroke:none"
         d="m 7686.59,16190.9 v -189 c -1.04,1.2 -2.02,2.3 -3.07,3.5 -51.4,58.9 -102.03,99.7 -152.42,122.9 -7.5,46.3 -43.45,83 -89.25,91.5 v 80.2 h 141.53 c 55.23,0 100.3,-48.3 103.21,-109.1" />
    </g>
    <g
       transform="matrix(0.13217807,0,0,-0.13217807,-820.02415,2201.6955)"
       id="g292">
      <path
         inkscape:connector-curvature="0"
         id="path294"
         style="fill:#1c6434;fill-opacity:1;fill-rule:nonzero;stroke:none"
         d="m 6653.57,16300 v -274.6 h -301.45 v 174.2 c 6.59,56.7 49.96,100.4 102.54,100.4 h 198.91" />
    </g>
    <g
       id="g296"
       transform="matrix(0.03527778,0,0,-0.03527778,-820.02415,2201.6955)">
      <g
         clip-path="url(#clipPath302)"
         id="g298">
        <g
           transform="scale(3.68906)"
           id="g304">
          <path
             inkscape:connector-curvature="0"
             id="path314"
             style="fill:url(#linearGradient312);fill-opacity:1;fill-rule:nonzero;stroke:none"
             d="m 7677.94,15343.4 h -425.83 v 45.4 l 200.11,247 -188.97,244.4 v 51.4 h 387.37 v -62.8 h -291.6 v -3.5 l 176.15,-226.9 -185.58,-228.7 v -2.5 h 328.35 z m 45.68,878.3 c -13.18,14.1 -26.19,26.7 -38.98,37.9 -19.25,16.7 -38.06,30.2 -56.47,40.4 -13.09,-18.3 -31.42,-32.6 -52.86,-40.4 -11.44,-4.3 -23.8,-6.8 -36.73,-7 -0.73,0 -1.52,0 -2.28,0 -12.36,0 -24.23,1.9 -35.4,5.7 -1.22,0.4 -2.44,0.8 -3.66,1.3 -18.13,6.7 -34.07,17.9 -46.49,32.4 -13.87,-9.2 -27.7,-20 -41.42,-32.4 -12.57,-11.5 -25.12,-24.2 -37.54,-37.9 -67.36,-74.4 -132.28,-180.1 -195.98,-284.5 -1.17,-1.8 -2.36,-3.8 -3.5,-5.7 -6.29,-10.2 -12.55,-20.5 -18.87,-30.8 l -15.31,-25 c -2.66,-4.3 -5.31,-8.6 -8,-12.9 -49.77,-80.2 -101.16,-158.7 -155.21,-221.4 -36.73,-42.6 -73.06,-75.8 -109.3,-99.6 -12.66,-8.3 -25.26,-15.5 -37.87,-21.6 -0.84,-5.6 -2.03,-11 -3.66,-16.3 -2.71,-8.8 -6.42,-17.3 -11.11,-25.1 -9.3,-15.6 -22.26,-28.8 -37.65,-38.3 -17.22,-10.6 -37.49,-16.8 -59.21,-16.8 -50.82,0 -93.84,33.8 -107.96,80.2 -2.12,7.1 -3.58,14.4 -4.34,21.9 -9.16,4.8 -18.33,10.1 -27.43,16 -41.67,26.6 -83.66,64.9 -124.89,112.8 v -353.5 c 6.29,-53.8 45.3,-96.2 94.01,-101.4 h 1166.64 c 47.36,5.1 85.55,45.2 93.38,97 v 821.8 c -27.92,40.3 -55.27,74.7 -81.91,103.2" />
        </g>
      </g>
    </g>
  </g>
</svg>
