<?xml version="1.0" encoding="UTF-8" standalone="no"?>
<!-- Created with Inkscape (http://www.inkscape.org/) -->

<svg
   xmlns:dc="http://purl.org/dc/elements/1.1/"
   xmlns:cc="http://creativecommons.org/ns#"
   xmlns:rdf="http://www.w3.org/1999/02/22-rdf-syntax-ns#"
   xmlns:svg="http://www.w3.org/2000/svg"
   xmlns="http://www.w3.org/2000/svg"
   xmlns:xlink="http://www.w3.org/1999/xlink"
   xmlns:sodipodi="http://sodipodi.sourceforge.net/DTD/sodipodi-0.dtd"
   xmlns:inkscape="http://www.inkscape.org/namespaces/inkscape"
   width="128"
   height="128"
   id="svg2"
   version="1.1"
   inkscape:version="0.47 r22583"
   sodipodi:docname="icon.png">
  <defs
     id="defs4">
    <marker
       inkscape:stockid="Arrow2Mend"
       orient="auto"
       refY="0.0"
       refX="0.0"
       id="Arrow2Mend"
       style="overflow:visible;">
      <path
         id="path3622"
         style="font-size:12.0;fill-rule:evenodd;stroke-width:0.62500000;stroke-linejoin:round;"
         d="M 8.7185878,4.0337352 L -2.2072895,0.016013256 L 8.7185884,-4.0017078 C 6.9730900,-1.6296469 6.9831476,1.6157441 8.7185878,4.0337352 z "
         transform="scale(0.6) rotate(180) translate(0,0)" />
    </marker>
    <marker
       inkscape:stockid="Arrow1Send"
       orient="auto"
       refY="0.0"
       refX="0.0"
       id="Arrow1Send"
       style="overflow:visible;">
      <path
         id="path3610"
         d="M 0.0,0.0 L 5.0,-5.0 L -12.5,0.0 L 5.0,5.0 L 0.0,0.0 z "
         style="fill-rule:evenodd;stroke:#000000;stroke-width:1.0pt;marker-start:none;"
         transform="scale(0.2) rotate(180) translate(6,0)" />
    </marker>
    <linearGradient
       inkscape:collect="always"
       id="linearGradient4938">
      <stop
         style="stop-color:#ececec;stop-opacity:1;"
         offset="0"
         id="stop4940" />
      <stop
         style="stop-color:#ececec;stop-opacity:0;"
         offset="1"
         id="stop4942" />
    </linearGradient>
    <linearGradient
       id="linearGradient4916">
      <stop
         style="stop-color:#000000;stop-opacity:0.39215687;"
         offset="0"
         id="stop4918" />
      <stop
         style="stop-color:#ffff00;stop-opacity:0;"
         offset="1"
         id="stop4920" />
    </linearGradient>
    <linearGradient
       id="linearGradient4792">
      <stop
         style="stop-color:#ff0000;stop-opacity:0.63529414;"
         offset="0"
         id="stop4794" />
      <stop
         style="stop-color:#000000;stop-opacity:0;"
         offset="1"
         id="stop4796" />
    </linearGradient>
    <marker
       inkscape:stockid="Arrow1Lend"
       orient="auto"
       refY="0.0"
       refX="0.0"
       id="Arrow1Lend"
       style="overflow:visible;">
      <path
         id="path3598"
         d="M 0.0,0.0 L 5.0,-5.0 L -12.5,0.0 L 5.0,5.0 L 0.0,0.0 z "
         style="fill-rule:evenodd;stroke:#000000;stroke-width:1.0pt;marker-start:none;"
         transform="scale(0.8) rotate(180) translate(12.5,0)" />
    </marker>
    <inkscape:perspective
       sodipodi:type="inkscape:persp3d"
       inkscape:vp_x="0 : 526.18109 : 1"
       inkscape:vp_y="0 : 1000 : 0"
       inkscape:vp_z="744.09448 : 526.18109 : 1"
       inkscape:persp3d-origin="372.04724 : 350.78739 : 1"
       id="perspective10" />
    <linearGradient
       inkscape:collect="always"
       xlink:href="#linearGradient4792"
       id="linearGradient4798"
       x1="0.80346006"
       y1="988.5741"
       x2="61.289257"
       y2="988.5741"
       gradientUnits="userSpaceOnUse"
       gradientTransform="translate(-54.566324,-1977.8848)" />
    <inkscape:perspective
       id="perspective4810"
       inkscape:persp3d-origin="0.5 : 0.33333333 : 1"
       inkscape:vp_z="1 : 0.5 : 1"
       inkscape:vp_y="0 : 1000 : 0"
       inkscape:vp_x="0 : 0.5 : 1"
       sodipodi:type="inkscape:persp3d" />
    <inkscape:perspective
       id="perspective4810-9"
       inkscape:persp3d-origin="0.5 : 0.33333333 : 1"
       inkscape:vp_z="1 : 0.5 : 1"
       inkscape:vp_y="0 : 1000 : 0"
       inkscape:vp_x="0 : 0.5 : 1"
       sodipodi:type="inkscape:persp3d" />
    <inkscape:perspective
       id="perspective4810-0"
       inkscape:persp3d-origin="0.5 : 0.33333333 : 1"
       inkscape:vp_z="1 : 0.5 : 1"
       inkscape:vp_y="0 : 1000 : 0"
       inkscape:vp_x="0 : 0.5 : 1"
       sodipodi:type="inkscape:persp3d" />
    <inkscape:perspective
       id="perspective4810-6"
       inkscape:persp3d-origin="0.5 : 0.33333333 : 1"
       inkscape:vp_z="1 : 0.5 : 1"
       inkscape:vp_y="0 : 1000 : 0"
       inkscape:vp_x="0 : 0.5 : 1"
       sodipodi:type="inkscape:persp3d" />
    <inkscape:perspective
       id="perspective4810-7"
       inkscape:persp3d-origin="0.5 : 0.33333333 : 1"
       inkscape:vp_z="1 : 0.5 : 1"
       inkscape:vp_y="0 : 1000 : 0"
       inkscape:vp_x="0 : 0.5 : 1"
       sodipodi:type="inkscape:persp3d" />
    <inkscape:perspective
       id="perspective4810-1"
       inkscape:persp3d-origin="0.5 : 0.33333333 : 1"
       inkscape:vp_z="1 : 0.5 : 1"
       inkscape:vp_y="0 : 1000 : 0"
       inkscape:vp_x="0 : 0.5 : 1"
       sodipodi:type="inkscape:persp3d" />
    <inkscape:perspective
       id="perspective4810-65"
       inkscape:persp3d-origin="0.5 : 0.33333333 : 1"
       inkscape:vp_z="1 : 0.5 : 1"
       inkscape:vp_y="0 : 1000 : 0"
       inkscape:vp_x="0 : 0.5 : 1"
       sodipodi:type="inkscape:persp3d" />
    <inkscape:perspective
       id="perspective4810-8"
       inkscape:persp3d-origin="0.5 : 0.33333333 : 1"
       inkscape:vp_z="1 : 0.5 : 1"
       inkscape:vp_y="0 : 1000 : 0"
       inkscape:vp_x="0 : 0.5 : 1"
       sodipodi:type="inkscape:persp3d" />
    <inkscape:perspective
       id="perspective4810-2"
       inkscape:persp3d-origin="0.5 : 0.33333333 : 1"
       inkscape:vp_z="1 : 0.5 : 1"
       inkscape:vp_y="0 : 1000 : 0"
       inkscape:vp_x="0 : 0.5 : 1"
       sodipodi:type="inkscape:persp3d" />
    <inkscape:perspective
       id="perspective4810-69"
       inkscape:persp3d-origin="0.5 : 0.33333333 : 1"
       inkscape:vp_z="1 : 0.5 : 1"
       inkscape:vp_y="0 : 1000 : 0"
       inkscape:vp_x="0 : 0.5 : 1"
       sodipodi:type="inkscape:persp3d" />
    <inkscape:perspective
       id="perspective4810-4"
       inkscape:persp3d-origin="0.5 : 0.33333333 : 1"
       inkscape:vp_z="1 : 0.5 : 1"
       inkscape:vp_y="0 : 1000 : 0"
       inkscape:vp_x="0 : 0.5 : 1"
       sodipodi:type="inkscape:persp3d" />
    <linearGradient
       inkscape:collect="always"
       xlink:href="#linearGradient4938"
       id="linearGradient4944"
       x1="65.363366"
       y1="83.390728"
       x2="121.97439"
       y2="83.390728"
       gradientUnits="userSpaceOnUse"
       gradientTransform="matrix(0.75544052,0,0,0.77558078,27.671422,941.12868)" />
  </defs>
  <sodipodi:namedview
     id="base"
     pagecolor="#ffffff"
     bordercolor="#666666"
     borderopacity="1.0"
     inkscape:pageopacity="0.0"
     inkscape:pageshadow="2"
     inkscape:zoom="1.45"
     inkscape:cx="64.389173"
     inkscape:cy="64"
     inkscape:document-units="px"
     inkscape:current-layer="layer1"
     showgrid="false"
     inkscape:window-width="1440"
     inkscape:window-height="845"
     inkscape:window-x="-4"
     inkscape:window-y="-3"
     inkscape:window-maximized="1" />
  <metadata
     id="metadata7">
    <rdf:RDF>
      <cc:Work
         rdf:about="">
        <dc:format>image/svg+xml</dc:format>
        <dc:type
           rdf:resource="http://purl.org/dc/dcmitype/StillImage" />
        <dc:title></dc:title>
      </cc:Work>
    </rdf:RDF>
  </metadata>
  <g
     inkscape:label="Layer 1"
     inkscape:groupmode="layer"
     id="layer1"
     transform="translate(0,-924.36218)">
    <rect
       style="fill:none;stroke:#000000;stroke-width:1.51248431;stroke-miterlimit:4;stroke-opacity:1;stroke-dasharray:none"
       id="rect2816"
       width="126.64811"
       height="127.07192"
       x="0.88787943"
       y="925.03809"
       rx="5.2148399"
       ry="5.1425443" />
    <path
       style="fill:none;stroke:#000000;stroke-width:2.03985763;stroke-linecap:butt;stroke-linejoin:miter;stroke-miterlimit:4;stroke-opacity:1;stroke-dasharray:none;marker-end:none"
       d="m 11.407568,938.06189 -0.06383,-0.0839 0.209209,103.46431 108.99784,-0.1923"
       id="path3590" />
    <path
       style="fill:none;stroke:#0000fe;stroke-width:1.77604949;stroke-linecap:butt;stroke-linejoin:miter;stroke-miterlimit:4;stroke-opacity:1;stroke-dasharray:none"
       d="m 19.812031,1034.1264 c 0,-0.4508 0,-0.9016 0,-1.3525 0,-0.064 0,-0.1288 0,-0.1933 0,-0.064 -0.04552,-0.1475 0,-0.1931 0.04552,-0.046 0.147625,0.047 0.193153,0 0.04647,-0.046 -0.04649,-0.7263 0,-0.773 0.04552,-0.045 0.147626,0.047 0.193152,0 0.04647,-0.046 -0.04647,-0.7263 0,-0.7728 0.04552,-0.046 0.147627,0.047 0.193154,0 0.03949,-0.04 -0.03829,-0.503 0,-0.5795 0.04072,-0.082 0.152433,-0.1119 0.193153,-0.1933 0.05758,-0.1152 -0.09105,-0.2953 0,-0.3865 0.04552,-0.047 0.147625,0.047 0.193153,0 0.09105,-0.091 -0.09106,-0.2954 0,-0.3863 0.04552,-0.047 0.147625,0.045 0.193154,0 0.09105,-0.091 -0.05758,-0.2713 0,-0.3864 0.04072,-0.082 0.152431,-0.1118 0.193152,-0.1934 0.0288,-0.058 -0.0288,-0.1355 0,-0.1932 0.04072,-0.081 0.152433,-0.1117 0.193153,-0.1932 0.05758,-0.1152 -0.09106,-0.2953 0,-0.3864 0.04552,-0.047 0.147625,0.047 0.193152,0 0.04552,-0.047 -0.04552,-0.1476 0,-0.1932 0.04552,-0.045 0.147628,0.045 0.193153,0 0.04552,-0.045 -0.04552,-0.1478 0,-0.1931 0.04552,-0.046 0.147627,0.045 0.193153,0 0.04552,-0.046 -0.04552,-0.1478 0,-0.1933 0.04552,-0.047 0.147626,0.045 0.193153,0 0.04552,-0.047 -0.04552,-0.1478 0,-0.1933 0.04552,-0.045 0.147627,0.047 0.193153,0 0.04552,-0.045 -0.04552,-0.1476 0,-0.1932 0.04552,-0.046 0.147627,0.046 0.193152,0 0.04552,-0.046 -0.04552,-0.1476 0,-0.1932 0.09106,-0.091 0.295253,0.091 0.386307,0 0.04552,-0.046 -0.04552,-0.1476 0,-0.1933 0.09106,-0.091 0.295254,0.091 0.386307,0 0.04552,-0.046 -0.04552,-0.1475 0,-0.193 0.09106,-0.091 0.27113,0.057 0.386306,0 0.08144,-0.041 0.111712,-0.1525 0.193153,-0.1933 0.06985,-0.035 0.831419,0 0.965764,0 0.386305,0 0.772611,0 1.158918,0 0.08699,0 0.520674,-0.03 0.579459,0 0.08143,0.041 0.128768,0.1288 0.193152,0.1933 0.128769,0 0.264145,-0.041 0.386306,0 0.08638,0.03 0.117392,0.1425 0.193152,0.193 0.11979,0.08 0.266519,0.1136 0.386307,0.1933 0.07577,0.051 0.117393,0.1426 0.193154,0.1932 0.119788,0.08 0.266517,0.1134 0.386306,0.1932 0.07577,0.051 0.117391,0.1426 0.193152,0.1933 0.09727,0.4257 0.397351,0.1017 0.579459,0.1933 0.08143,0.041 0.111713,0.1523 0.193154,0.1931 0.05758,0.029 0.147626,-0.045 0.193151,0 0.04552,0.045 -0.04552,0.1477 0,0.1932 0.04648,0.047 0.726134,-0.048 0.772613,0 0.04552,0.047 -0.04552,0.1477 0,0.1932 0.09105,0.091 0.295254,-0.091 0.386306,0 0.04552,0.047 -0.04552,0.1476 0,0.1932 0.09106,0.091 0.271132,-0.057 0.386305,0 0.08143,0.041 0.111714,0.1525 0.193155,0.1932 0.115175,0.058 0.27113,-0.057 0.386304,0 0.08143,0.041 0.111713,0.1526 0.193153,0.1932 0.05758,0.029 0.12877,0 0.193153,0 0.06438,0 0.12877,0 0.193154,0 0.32192,0 0.643842,0 0.965765,0 0.07093,0 0.764838,0.011 0.772611,0 0.04552,-0.045 -0.04552,-0.1476 0,-0.1932 0.06483,-0.065 0.321476,0.065 0.386305,0 0.04552,-0.045 -0.04552,-0.1476 0,-0.1932 0.04552,-0.046 0.147629,0.046 0.193154,0 0.04552,-0.046 -0.04552,-0.1476 0,-0.1932 0.09105,-0.091 0.295254,0.091 0.386306,0 0.04552,-0.046 -0.04552,-0.1477 0,-0.1932 0.04552,-0.047 0.147626,0.047 0.193153,0 0.04552,-0.047 -0.04552,-0.1476 0,-0.1932 0.515075,0 -0.06438,0.064 0.193152,-0.1931 0.04552,-0.046 0.147628,0.045 0.193154,0 0.06489,-0.065 -0.06489,-0.3216 0,-0.3866 0.04552,-0.045 0.147626,0.047 0.193154,0 0.09106,-0.091 -0.09105,-0.2954 0,-0.3864 0.04552,-0.046 0.147626,0.046 0.193152,0 0.04552,-0.046 0,-0.1288 0,-0.1933 0.06438,0 0.147626,0.047 0.193154,0 0.09105,-0.091 -0.09106,-0.2952 0,-0.3863 0.04552,-0.047 0.147625,0.045 0.193152,0 0.09658,-0.097 -0.09658,-0.4831 0,-0.5797 0.04552,-0.046 0.147627,0.046 0.193152,0 0.09105,-0.091 -0.09105,-0.2952 0,-0.3865 0.04552,-0.047 0.147627,0.047 0.193154,0 0.04646,-0.047 -0.04647,-0.7263 0,-0.7727 0.04552,-0.046 0.147626,0.045 0.193152,0 0.04552,-0.046 0,-0.1289 0,-0.1933 0,-0.3864 0,-0.7727 0,-1.1593 0,-0.063 -0.04552,-0.1476 0,-0.1932 0.04552,-0.047 0.147628,0.046 0.193154,0 0.0061,-0.01 0,-0.5328 0,-0.5797 0,-0.5151 0,-1.0305 0,-1.5457 0,-0.1006 -0.02538,-0.722 0,-0.7727 0.04072,-0.082 0.152432,-0.1119 0.193153,-0.1933 0.02573,-0.051 0,-1.0719 0,-1.1593 0,-0.065 -0.0288,-0.1357 0,-0.1933 0.04072,-0.081 0.152434,-0.1116 0.193153,-0.1932 0.06323,-0.1264 -0.05713,-0.7946 0,-0.9661 0.04552,-0.1366 0.147625,-0.2497 0.193154,-0.3863 0.02035,-0.062 0,-0.1289 0,-0.1933 0,-0.182 -0.03663,-0.8561 0,-0.9661 0.02878,-0.086 0.164358,-0.1068 0.193152,-0.1932 0.04381,-0.1314 -0.05121,-0.8636 0,-0.9661 0.04072,-0.081 0.152433,-0.1117 0.193153,-0.1931 0.03829,-0.076 -0.03949,-0.5402 0,-0.5798 0.04552,-0.047 0.164358,0.058 0.193154,0 0.106357,-0.2128 -0.0755,-0.5462 0,-0.7727 0.04552,-0.1367 0.147625,-0.2498 0.193152,-0.3865 0.03913,-0.1174 -0.03913,-0.269 0,-0.3864 0.04552,-0.1368 0.147627,-0.2499 0.193153,-0.3865 0.03551,-0.1065 -0.0413,-0.7316 0,-0.7728 0.04552,-0.046 0.147625,0.047 0.193151,0 0.04647,-0.046 -0.04646,-0.7263 0,-0.773 0.04552,-0.045 0.147628,0.047 0.193155,0 0.09105,-0.091 -0.04072,-0.2642 0,-0.3864 0.04552,-0.1365 0.147626,-0.2497 0.193152,-0.3863 0.04072,-0.1222 -0.05758,-0.2713 0,-0.3864 0.04072,-0.082 0.152432,-0.1119 0.193153,-0.1933 0.07727,-0.1546 -0.07727,-0.425 0,-0.5797 0.04072,-0.082 0.152433,-0.1117 0.193153,-0.1932 0.05758,-0.1152 -0.05758,-0.2712 0,-0.3864 0.04072,-0.082 0.152433,-0.1117 0.193153,-0.1931 0.05758,-0.1153 -0.05758,-0.2713 0,-0.3865 0.04072,-0.081 0.16436,-0.1069 0.193154,-0.1934 0.04072,-0.1221 -0.04072,-0.2641 0,-0.3862 0.0288,-0.086 0.16436,-0.1069 0.193153,-0.1932 0.04072,-0.1223 -0.03124,-0.2616 0,-0.3865 0.06982,-0.2795 0.295252,-0.4997 0.386306,-0.773 0.02036,-0.061 -0.02878,-0.1355 0,-0.1931 0.04072,-0.081 0.152432,-0.1118 0.193152,-0.1932 0.0288,-0.058 0,-0.1289 0,-0.1931 0,-0.1289 -0.04072,-0.2644 0,-0.3867 0.05758,-0.1727 0.32872,-0.2135 0.386307,-0.3864 0.04072,-0.1222 -0.04072,-0.2641 0,-0.3864 0.0288,-0.086 0.152433,-0.1116 0.193151,-0.1932 0.0288,-0.057 -0.0288,-0.1355 0,-0.193 0.04072,-0.082 0.152434,-0.1119 0.193155,-0.1932 0.02878,-0.058 -0.0288,-0.1358 0,-0.1933 0.04072,-0.082 0.152434,-0.112 0.193152,-0.1933 0.02879,-0.058 -0.0288,-0.1356 0,-0.1933 0.04072,-0.081 0.152433,-0.1117 0.193154,-0.193 0.05758,-0.1153 -0.09105,-0.2955 0,-0.3866 0.04552,-0.047 0.147625,0.047 0.193152,0 0.04552,-0.047 -0.02881,-0.1356 0,-0.1931 0.08143,-0.1631 0.304867,-0.2237 0.386307,-0.3865 0.02878,-0.058 -0.02881,-0.1355 0,-0.1933 0.213537,-0.4272 0.119878,-0.06 0.386305,-0.1932 0.10316,-0.051 0.477771,-0.4779 0.579458,-0.5795 0.113602,-0.1138 0.683167,-0.72823 0.772612,-0.773 0.05758,-0.0283 0.135567,0.0283 0.193154,0 0.08143,-0.0409 0.117392,-0.14274 0.193152,-0.19317 0.119789,-0.0798 0.266519,-0.11337 0.386306,-0.19318 0.07577,-0.0503 0.111713,-0.15247 0.193153,-0.19327 0.05758,-0.0283 0.132073,0.0199 0.193154,0 0.136579,-0.0462 0.249726,-0.14766 0.386307,-0.19307 0.06106,-0.0199 0.147625,0.0451 0.193152,0 0.04552,-0.0462 -0.04552,-0.14787 0,-0.19338 0.03949,-0.0398 0.502875,0.0388 0.579459,0 0.08143,-0.0409 0.111713,-0.15249 0.193152,-0.19307 0.07659,-0.0388 0.539971,0.0398 0.579459,0 0.04552,-0.0462 -0.05758,-0.16451 0,-0.19335 0.386305,-0.19317 0.289729,0.0975 0.579459,0 0.136579,-0.0451 0.249727,-0.14755 0.386306,-0.19317 0.122162,-0.0409 0.271131,0.0577 0.386306,0 0.08143,-0.0409 0.111712,-0.15248 0.193153,-0.19317 0.104786,-0.0524 0.719761,0.0524 0.772612,0 0.04552,-0.0462 -0.04552,-0.14766 0,-0.19327 0.05286,-0.0524 0.667829,0.0524 0.772613,0 0.08143,-0.0409 0.106771,-0.16434 0.193152,-0.19318 8.75e-4,-3.2e-4 0.579274,10e-5 0.579458,0 0.04552,-0.0462 -0.04552,-0.14755 0,-0.19327 0.09658,-0.0976 0.482884,0.0975 0.57946,0 0.04552,-0.0462 -0.04552,-0.14766 0,-0.19318 0.09658,-0.0975 0.482882,0.0975 0.579459,0 0.04552,-0.0462 -0.04552,-0.14766 0,-0.19317 0.04552,-0.0462 0.135566,0.0283 0.193152,0 0.162881,-0.0818 0.223426,-0.30496 0.386307,-0.38655 0.05758,-0.0283 0.135565,0.0283 0.193153,0 0.16288,-0.0818 0.223425,-0.30476 0.386305,-0.38635 0.05758,-0.0293 0.147628,0.0462 0.193153,0 0.04552,-0.0462 -0.02878,-0.1357 0,-0.19306 0.04072,-0.0818 0.12877,-0.12889 0.193154,-0.19339 0.101686,-0.10172 0.527878,-0.47652 0.579458,-0.57972 0.0288,-0.0577 -0.0288,-0.13549 0,-0.19307 0.04072,-0.0818 0.152432,-0.11179 0.193154,-0.19327 0.02878,-0.0577 -0.0288,-0.1356 0,-0.19328 0.130281,-0.26061 0.256023,-0.12574 0.386305,-0.38634 0.0288,-0.0577 -0.0288,-0.13561 0,-0.19318 0.04072,-0.0818 0.152434,-0.11189 0.193154,-0.19316 0.0288,-0.0577 -0.02878,-0.1357 0,-0.19339 0.04072,-0.0818 0.152432,-0.11168 0.193152,-0.19317 0.02881,-0.0577 -0.0288,-0.13559 0,-0.19317 0.04072,-0.0818 0.152434,-0.11179 0.193153,-0.19328 0.05758,-0.11525 -0.09105,-0.29531 0,-0.38645 0.04552,-0.0451 0.16436,0.0577 0.193153,0 0.05758,-0.11514 -0.04072,-0.26417 0,-0.38634 0.05758,-0.17293 0.304866,-0.22348 0.386306,-0.38645 0.0288,-0.0577 -0.0288,-0.1356 0,-0.19328 0.04072,-0.0818 0.152433,-0.11169 0.193152,-0.19316 0.0288,-0.0576 -0.02878,-0.13562 0,-0.19322 0.04072,-0.0815 0.152432,-0.11175 0.193153,-0.19321 0.05118,-0.10236 -0.05118,-0.28408 0,-0.38644 0.04072,-0.0815 0.152433,-0.11175 0.193154,-0.19322 0.07727,-0.15457 -0.07727,-0.42506 0,-0.57965 0.04072,-0.0814 0.152433,-0.11174 0.193152,-0.1932 0.0607,-0.12145 -0.0607,-0.65144 0,-0.77286 0.04072,-0.0815 0.164361,-0.10682 0.193155,-0.19322 0.04072,-0.1222 0,-0.25763 0,-0.38643 0,-0.0644 -0.0288,-0.13562 0,-0.19322 0.04072,-0.0814 0.152432,-0.11175 0.193151,-0.19321 0.02873,-0.0576 0,-1.07801 0,-1.1593 0,-0.0645 -0.0288,-0.13561 0,-0.19321 0.04072,-0.0816 0.152434,-0.11175 0.193154,-0.19323 0.02878,-0.0575 0,-0.12879 0,-0.19321 0,-0.1288 0,-0.2576 0,-0.38642 0,-0.32204 0,-0.64406 0,-0.96608 0,-0.1344 -0.03494,-0.89621 0,-0.96608 0.04072,-0.0814 0.152433,-0.11175 0.193153,-0.19321 0.02497,-0.0499 0,-1.02234 0,-1.15929 0,-0.0645 -0.04552,-0.14769 0,-0.19323 0.04552,-0.0456 0.147626,0.0456 0.193153,0 0.05286,-0.0528 -0.05239,-0.66803 0,-0.77285 0.04072,-0.0815 0.152433,-0.11176 0.193153,-0.19323 0.02878,-0.0576 0,-0.12881 0,-0.19321 0,-0.12881 -0.04072,-0.26423 0,-0.38642 0.02878,-0.0864 0.16436,-0.10683 0.193152,-0.19323 0.04072,-0.12219 -0.04072,-0.26422 0,-0.38644 0.0288,-0.0864 0.152435,-0.11172 0.193154,-0.1932 0.05758,-0.11521 -0.05758,-0.27122 0,-0.38643 0.04072,-0.0815 0.152432,-0.11176 0.193153,-0.19321 0.03829,-0.0766 -0.03949,-0.54015 0,-0.57965 0.04552,-0.0457 0.147625,0.0455 0.193152,0 0.09105,-0.0912 -0.09105,-0.29535 0,-0.38644 0.04552,-0.0455 0.147627,0.0456 0.193153,0 0.04552,-0.0455 -0.02881,-0.13561 0,-0.1932 0.04072,-0.0816 0.152433,-0.11175 0.193155,-0.19324 0.0288,-0.0575 -0.04552,-0.14766 0,-0.1932 0.04552,-0.0456 0.147625,0.0457 0.193151,0 0.09105,-0.0911 -0.09106,-0.29535 0,-0.38644 0.04552,-0.0456 0.147627,0.0456 0.193154,0 0.04552,-0.0456 -0.0288,-0.1356 0,-0.1932 0.04072,-0.0814 0.152431,-0.11176 0.193152,-0.19322 0.02881,-0.0576 -0.04552,-0.14767 0,-0.19322 0.04552,-0.0456 0.135565,0.0288 0.193154,0 0.03698,-0.0185 0.754124,-0.73587 0.77261,-0.77285 0.0288,-0.0576 -0.04552,-0.14768 0,-0.19323 0.04552,-0.0455 0.135568,0.0288 0.193154,0 0.08143,-0.0407 0.12877,-0.1288 0.193152,-0.19321 0.06438,-0.0645 0.152433,-0.11175 0.193154,-0.19321 0.0288,-0.0576 -0.04552,-0.14767 0,-0.19323 0.04552,-0.0456 0.135566,0.0288 0.193153,0 0.640608,-0.6408 -0.182107,0.0911 0.386306,-0.1932 0.231783,-0.11595 0.347676,-0.46373 0.57946,-0.57965 0.05758,-0.0288 0.147625,0.0457 0.193152,0 0.39964,-0.39976 -0.610704,0.0157 0.193154,-0.38643 0.05758,-0.0288 0.135565,0.0288 0.193152,0 0.255736,-0.12791 0.13057,-0.25853 0.386306,-0.38644 0.05758,-0.0288 0.135566,0.0288 0.193152,0 0.162882,-0.0814 0.223424,-0.30496 0.386307,-0.38642 0.05758,-0.0288 0.135564,0.0288 0.193152,0 0.640609,-0.64083 -0.182105,0.091 0.386306,-0.19321 0.08143,-0.0407 0.117393,-0.1427 0.193153,-0.19322 0.119789,-0.08 0.266518,-0.11335 0.386306,-0.19321 0.151523,-0.101 0.213545,-0.32883 0.386306,-0.38644 0.12216,-0.0407 0.264145,0.0407 0.386306,0 0.08638,-0.0288 0.111713,-0.15248 0.193153,-0.19321 0.05758,-0.0288 0.132073,0.0203 0.193153,0 1.399088,-0.46653 -0.304527,0.0557 0.57946,-0.38644 0.05758,-0.0288 0.135564,0.0288 0.193153,0 0.08143,-0.0407 0.106772,-0.16441 0.193153,-0.19322 0.183239,-0.0611 0.396216,0.0612 0.579457,0 0.136581,-0.0456 0.249728,-0.14767 0.386307,-0.19321 0.06106,-0.0203 0.12877,0 0.193153,0 0.128768,0 0.264144,0.0407 0.386306,0 0.08638,-0.0288 0.111712,-0.15247 0.193152,-0.19322 0.05758,-0.0288 0.132073,0.0203 0.193154,0 0.136579,-0.0455 0.249727,-0.14767 0.386306,-0.19321 0.06107,-0.0203 0.135566,0.0288 0.193154,0 0.08143,-0.0407 0.111711,-0.15248 0.193151,-0.19323 0.121402,-0.0608 0.651212,0.0608 0.772612,0 0.08143,-0.0407 0.111713,-0.15246 0.193155,-0.1932 0.1214,-0.0608 0.651209,0.0608 0.772611,0 0.08143,-0.0407 0.11171,-0.15248 0.193154,-0.1932 0.07658,-0.0383 0.53997,0.0395 0.579457,0 0.04552,-0.0456 -0.05758,-0.16443 0,-0.19323 0.115175,-0.0576 0.264145,0.0407 0.386304,0 0.08638,-0.0288 0.111715,-0.15248 0.193155,-0.1932 0.115175,-0.0577 0.295253,0.091 0.386306,0 0.04552,-0.0457 -0.0288,-0.13563 0,-0.19323 0.189584,-0.37929 0.367067,-0.087 0.579458,-0.19321 0.162883,-0.0815 0.213546,-0.32884 0.386306,-0.38644 0.122162,-0.0407 0.264147,0.0407 0.386308,0 0.08638,-0.0288 0.117391,-0.14268 0.193152,-0.19322 0.321645,-0.21449 0.860546,-0.35579 1.158918,-0.57964 0.145685,-0.1093 0.240621,-0.27713 0.386305,-0.38644 0.115174,-0.0864 0.271132,-0.10681 0.386306,-0.1932 0.145685,-0.10929 0.240622,-0.27713 0.386306,-0.38644 0.115175,-0.0864 0.284506,-0.0913 0.386306,-0.19323 0.101796,-0.10182 0.09134,-0.28457 0.193153,-0.38641 0.101796,-0.10184 0.266518,-0.11335 0.386305,-0.19321 0.07577,-0.0505 0.128769,-0.12883 0.193155,-0.19323 0.128767,-0.12881 0.257537,-0.25761 0.386305,-0.38641 0.128768,-0.12882 0.285292,-0.23487 0.386307,-0.38644 0.07986,-0.11984 0.113293,-0.2666 0.193153,-0.38644 0.09898,-0.14851 0.287326,-0.23791 0.386305,-0.38643 0.08206,-0.12314 0.548138,-1.03397 0.579459,-1.15927 0.03122,-0.12499 -0.04072,-0.26426 0,-0.38644 0.05758,-0.17282 0.304865,-0.2235 0.386305,-0.38644 0.05758,-0.11522 -0.05758,-0.27122 0,-0.38644 0.04072,-0.0815 0.152433,-0.11174 0.193153,-0.19321 0.05758,-0.11522 -0.05758,-0.27121 0,-0.38643 0.04072,-0.0814 0.164361,-0.10681 0.193154,-0.19322 0.04072,-0.12218 -0.04072,-0.26422 0,-0.38643 0.0288,-0.0864 0.152433,-0.11175 0.193152,-0.19321 0.0288,-0.0576 -0.0288,-0.13561 0,-0.19323 0.04072,-0.0814 0.164361,-0.10679 0.193154,-0.1932 0.04072,-0.1222 -0.04072,-0.26424 0,-0.38644 0.0288,-0.0864 0.164358,-0.10679 0.193153,-0.1932 0,-1.28164 -0.09105,0.27323 0.193153,-0.57966 0.04072,-0.12218 -0.04072,-0.26422 0,-0.38642 0.0288,-0.0864 0.152432,-0.11175 0.193154,-0.19322 0.0288,-0.0576 -0.02036,-0.13211 0,-0.19321 0.04552,-0.13664 0.147625,-0.24983 0.193152,-0.38644 0.19166,-0.57517 -0.45736,0.39645 0.193152,-0.57964 0.0505,-0.0758 0.16436,-0.1068 0.193153,-0.19322 0.04072,-0.1222 -0.03124,-0.26146 0,-0.38642 0.233182,-0.93303 0.09179,0.01 0.386307,-0.57965 0.0288,-0.0575 -0.0288,-0.13561 0,-0.19323 0.04072,-0.0815 0.152433,-0.11173 0.193153,-0.1932 0.05146,-0.10299 -0.05146,-0.28345 0,-0.38644 0.04072,-0.0814 0.152432,-0.11175 0.193152,-0.19321 0.0288,-0.0576 -0.0288,-0.13561 0,-0.19321 0.04072,-0.0814 0.152433,-0.11175 0.193155,-0.19323 0.0288,-0.0576 -0.0288,-0.13561 0,-0.19321 0.04072,-0.0814 0.152432,-0.11174 0.193151,-0.19321 0.0288,-0.0576 -0.0288,-0.1356 0,-0.19324 0.04072,-0.0814 0.152433,-0.11173 0.193154,-0.19319 0.0288,-0.0575 0,-0.12881 0,-0.19322 0.06438,-0.1288 0.113293,-0.26662 0.193153,-0.38643 0.0505,-0.0757 0.152432,-0.11176 0.193153,-0.19322 0.0288,-0.0576 -0.02881,-0.13561 0,-0.19321 0.08143,-0.16293 0.28529,-0.23486 0.386305,-0.38644 0.07986,-0.11983 0.113295,-0.26659 0.193153,-0.38641 0.0505,-0.0757 0.128771,-0.12881 0.193152,-0.19323 0.12877,-0.12881 0.240622,-0.27713 0.386306,-0.38644 0.230349,-0.17281 0.569011,-0.18275 0.772613,-0.38642 0.987085,-0.9874 -0.809885,0.26949 0.57946,-0.77287 0.230347,-0.1728 0.569009,-0.18275 0.77261,-0.38642 0.101807,-0.10183 0.09135,-0.28461 0.193155,-0.38644 0.753822,-0.75406 0.103727,0.0447 0.579458,-0.19321 0.08143,-0.0407 0.111713,-0.15249 0.193153,-0.19321 0.05758,-0.0288 0.147626,0.0457 0.193153,0 0.04552,-0.0456 -0.04552,-0.14768 0,-0.19322 0.06434,-0.0645 0.321969,0.0644 0.386306,0 0.04552,-0.0456 -0.04552,-0.14767 0,-0.19321 0.09105,-0.0911 0.295253,0.091 0.386305,0 0.04552,-0.0456 -0.04552,-0.14767 0,-0.19323 0.09105,-0.091 0.271133,0.0577 0.386305,0 0.08143,-0.0407 0.111714,-0.15246 0.193154,-0.1932 0.115175,-0.0576 0.271131,0.0576 0.386306,0 0.08143,-0.0407 0.111714,-0.15248 0.193154,-0.19323 0.1214,-0.0608 0.651209,0.0608 0.772612,0 0.08143,-0.0407 0.106772,-0.1644 0.193153,-0.19321 0.244321,-0.0814 0.522762,0.0625 0.77261,0 0.13967,-0.0349 0.246638,-0.15829 0.386308,-0.19321 0.124922,-0.0313 0.257537,0 0.386305,0 0.450685,0 0.901379,0 1.352072,0 0.128769,0 0.261383,0.0312 0.386305,0 0.139671,-0.035 0.246634,-0.15829 0.386304,-0.19322 0.124923,-0.0313 0.257537,0 0.386305,0 0.128768,0 0.257537,0 0.386304,0 0.386314,0 0.772619,0 1.158924,0 0.128768,0 0.261382,0.0312 0.386305,0 0.13967,-0.035 0.246633,-0.15829 0.386304,-0.19321 0.187388,-0.0469 0.386305,0 0.579462,0 0.450683,0 0.901377,0 1.352073,0 0.0869,0 0.52067,0.0293 0.57946,0 0.0814,-0.0407 0.11171,-0.1525 0.19315,-0.19322 0.13341,-0.0666 0.89796,0.0679 0.96576,0 0.0455,-0.0457 -0.0455,-0.14767 0,-0.19321 0.0395,-0.0395 0.50287,0.0383 0.57945,0 0.0815,-0.0408 0.11172,-0.15249 0.19316,-0.19322 0.11518,-0.0576 0.29526,0.0911 0.38632,0 0.0455,-0.0457 -0.0455,-0.14767 0,-0.19321 0.0395,-0.0395 0.50287,0.0383 0.57946,0 0.16286,-0.0815 0.22342,-0.30496 0.3863,-0.38643 0.0576,-0.0288 0.12876,0 0.19315,0 0.12877,-0.0645 0.26652,-0.11334 0.3863,-0.19322 0.0757,-0.0505 0.10679,-0.16441 0.19316,-0.19322 0.12215,-0.0407 0.26414,0.0407 0.3863,0 0.0864,-0.0288 0.11172,-0.15247 0.19315,-0.19321 0.0577,-0.0288 0.13207,0.0203 0.19316,0 0.13658,-0.0456 0.24972,-0.14768 0.38631,-0.19323 0.0611,-0.0203 0.13556,0.0288 0.19314,0 0.15442,-0.0772 0.2319,-0.3092 0.38632,-0.38643 0.0576,-0.0288 0.13556,0.0288 0.19315,0 0.0814,-0.0407 0.11171,-0.15247 0.19315,-0.19321 0.11517,-0.0576 0.29525,0.0909 0.38631,0 0.0455,-0.0456 -0.0455,-0.14766 0,-0.19322 0.0455,-0.0455 0.13557,0.0288 0.19315,0 0.16288,-0.0814 0.22342,-0.30496 0.38631,-0.38642 0.0577,-0.0288 0.13557,0.0288 0.19316,0 0.16287,-0.0814 0.22342,-0.30496 0.38629,-0.38642 0.0577,-0.0288 0.13555,0.0288 0.19316,0 0.16288,-0.0814 0.22344,-0.30498 0.3863,-0.38644 0.0575,-0.0288 0.14763,0.0455 0.19316,0 0.0455,-0.0457 -0.0455,-0.14768 0,-0.19322 0.0455,-0.0457 0.14763,0.0455 0.19316,0 0.0455,-0.0457 -0.0455,-0.14768 0,-0.19321 0.0455,-0.0455 0.13555,0.0288 0.19314,0 0.80385,-0.40207 -0.20648,0.0135 0.19315,-0.38644 0.0455,-0.0456 0.14764,0.0457 0.19315,0 0.0455,-0.0456 -0.0455,-0.14767 0,-0.19321 0.0455,-0.0456 0.14764,0.0457 0.19316,0 0.0455,-0.0456 -0.0455,-0.14767 0,-0.19321 0.0455,-0.0456 0.14763,0.0457 0.19316,0 0.0643,-0.0645 -0.0643,-0.32209 0,-0.38644 0.0455,-0.0456 0.14762,0.0457 0.19315,0 0.0455,-0.0456 -0.0455,-0.14769 0,-0.19321 0.0455,-0.0456 0.13556,0.0288 0.19314,0 0.80386,-0.40206 -0.20647,0.0134 0.19316,-0.38643 0.39963,-0.39977 -0.0156,0.61091 0.38632,-0.19321 0,-0.51526 -0.0643,0.0645 0.19314,-0.19322 0.0455,-0.0457 -0.0455,-0.14768 0,-0.19322 0.0455,-0.0457 0.14764,0.0455 0.19316,0 0.0455,-0.0457 -0.0455,-0.14767 0,-0.19321 0.0455,-0.0457 0.14763,0.0455 0.19316,0 0.0645,-0.0646 -0.0645,-0.32189 0,-0.38643 0.0455,-0.0457 0.14762,0.0456 0.19314,0 0.0643,-0.0645 -0.0643,-0.32208 0,-0.38643 0.0455,-0.0456 0.14762,0.0456 0.19315,0 0.0455,-0.0456 -0.0455,-0.14769 0,-0.19322 0.0455,-0.0456 0.14764,0.0456 0.19316,0 0.0645,-0.0647 -0.0645,-0.32188 0,-0.38645 0.0455,-0.0456 0.14761,0.0457 0.19315,0 0.0455,-0.0456 -0.0455,-0.14766 0,-0.1932 0.0455,-0.0456 0.14762,0.0455 0.19315,0 0.0643,-0.0645 -0.0643,-0.32205 0,-0.38643 0.39963,-0.39977 -0.0156,0.61091 0.3863,-0.19321 0,-0.51524 -0.0643,0.0645 0.19317,-0.19322 0.0454,-0.0456 -0.0288,-0.13561 0,-0.1932 0.0407,-0.0815 0.12876,-0.12882 0.19316,-0.19322 0.0643,-0.0645 0.1117,-0.15249 0.19315,-0.19322 0.0576,-0.0288 0.13555,0.0288 0.19314,0 0.0814,-0.0407 0.12878,-0.12882 0.19317,-0.19322 0.0643,-0.0645 0.15242,-0.11175 0.19313,-0.1932 0.0288,-0.0577 -0.0455,-0.14769 0,-0.19325 0.10181,-0.10182 0.26652,-0.11331 0.3863,-0.1932 0.15154,-0.10099 0.22344,-0.30496 0.38631,-0.38643 0.0576,-0.0288 0.14763,0.0457 0.19316,0 0.0455,-0.0456 -0.0455,-0.14768 0,-0.19321 0.0455,-0.0456 0.14764,0.0455 0.19315,0 0.0455,-0.0456 -0.0455,-0.14767 0,-0.19323 0.0455,-0.0455 0.14763,0.0457 0.19316,0 0.0455,-0.0455 -0.0454,-0.14767 0,-0.1932 0.19053,-0.1906 0.38631,0.3959 0.38631,-0.19322"
       id="path4786" />
    <path
       style="fill:none;stroke:#fc0000;stroke-width:1px;stroke-linecap:butt;stroke-linejoin:miter;stroke-opacity:1"
       d="M 60.821192,1.4834437 61.880795,126.9404"
       id="path4788"
       transform="translate(0,924.36218)" />
    <rect
       style="fill:url(#linearGradient4798);fill-opacity:1;stroke:none"
       id="rect4790"
       width="60.485798"
       height="126.81693"
       x="-53.762863"
       y="-1052.7191"
       transform="matrix(-0.99996937,0.00782659,-0.00782659,-0.99996937,0,0)" />
    <rect
       style="fill:#ffff00;fill-opacity:1;stroke:#000000;stroke-width:0.66399997;stroke-miterlimit:4;stroke-opacity:1;stroke-dasharray:none"
       id="rect4800"
       width="3.5148489"
       height="3.5148492"
       x="18.451271"
       y="1029.9498" />
    <rect
       style="fill:#ffff00;fill-opacity:1;stroke:#000000;stroke-width:0.66399997;stroke-miterlimit:4;stroke-opacity:1;stroke-dasharray:none"
       id="rect4800-9"
       width="3.5148489"
       height="3.5148492"
       x="24.41638"
       y="1025.2396" />
    <rect
       style="fill:#ffff00;fill-opacity:1;stroke:#000000;stroke-width:0.66399997;stroke-miterlimit:4;stroke-opacity:1;stroke-dasharray:none"
       id="rect4800-7"
       width="3.5148489"
       height="3.5148492"
       x="33.896626"
       y="1024.3778" />
    <rect
       style="fill:#ffff00;fill-opacity:1;stroke:#000000;stroke-width:0.66399997;stroke-miterlimit:4;stroke-opacity:1;stroke-dasharray:none"
       id="rect4800-3"
       width="3.5148489"
       height="3.5148492"
       x="35.769764"
       y="1016.8818" />
    <rect
       style="fill:#ffff00;fill-opacity:1;stroke:#000000;stroke-width:0.66399997;stroke-miterlimit:4;stroke-opacity:1;stroke-dasharray:none"
       id="rect4800-50"
       width="3.5148489"
       height="3.5148492"
       x="37.568871"
       y="1007.2972" />
    <rect
       style="fill:#ffff00;fill-opacity:1;stroke:#000000;stroke-width:0.66399997;stroke-miterlimit:4;stroke-opacity:1;stroke-dasharray:none"
       id="rect4800-1"
       width="3.5148489"
       height="3.5148492"
       x="41.958454"
       y="998.64154" />
    <rect
       style="fill:#ffff00;fill-opacity:1;stroke:#000000;stroke-width:0.66399997;stroke-miterlimit:4;stroke-opacity:1;stroke-dasharray:none"
       id="rect4800-2"
       width="3.5148489"
       height="3.5148492"
       x="49.612358"
       y="995.10559" />
    <rect
       style="fill:#ffff00;fill-opacity:1;stroke:#000000;stroke-width:0.66399997;stroke-miterlimit:4;stroke-opacity:1;stroke-dasharray:none"
       id="rect4800-27"
       width="3.5148489"
       height="3.5148492"
       x="55.117058"
       y="987.11566" />
    <rect
       style="font-size:14px;fill:url(#linearGradient4944);fill-opacity:1;stroke:#979797;stroke-width:0.50825506;stroke-miterlimit:4;stroke-opacity:1;stroke-dasharray:none"
       id="rect4914"
       width="42.264645"
       height="51.445145"
       x="77.300362"
       y="980.0824" />
    <text
       xml:space="preserve"
       style="font-size:11.1354847px;font-style:normal;font-weight:normal;fill:#000000;fill-opacity:1;stroke:none;font-family:Bitstream Vera Sans"
       x="79.876991"
       y="1055.082"
       id="text4946"
       transform="scale(1.0646521,0.93927397)"><tspan
         sodipodi:role="line"
         id="tspan4948"
         x="79.876991"
         y="1055.082"
         style="font-size:10.27890873px">X, Y</tspan></text>
    <text
       xml:space="preserve"
       style="font-size:11.99839687px;font-style:normal;font-weight:normal;fill:#000000;fill-opacity:1;stroke:none;font-family:Bitstream Vera Sans"
       x="76.748543"
       y="1030.1708"
       id="text4950"
       transform="scale(1.0274114,0.97331994)"><tspan
         sodipodi:role="line"
         id="tspan4952"
         x="76.748543"
         y="1030.1708"
         style="font-size:10.51759148px">10, 10</tspan><tspan
         sodipodi:role="line"
         x="76.748543"
         y="1043.3177"
         id="tspan4954"
         style="font-size:10.51759148px">11, 11</tspan><tspan
         sodipodi:role="line"
         x="76.748543"
         y="1056.4647"
         id="tspan4956"
         style="font-size:10.51759148px">12, 12</tspan></text>
    <path
       style="fill:none;stroke:#070707;stroke-width:2;stroke-linecap:butt;stroke-linejoin:miter;stroke-miterlimit:4;stroke-opacity:1;stroke-dasharray:none;marker-end:url(#Arrow2Mend)"
       d="m 43.965088,1013.4118 1.186227,5.0113 5.888685,5.7614 6.141532,2.3979 5.89716,0.3734 4.778823,-1.507 4.590464,-2.1044"
       id="path6084" />
  </g>
</svg>
