<?xml version="1.0" encoding="UTF-8" standalone="no"?>
<!-- Created with Inkscape (http://www.inkscape.org/) -->

<svg
   xmlns:dc="http://purl.org/dc/elements/1.1/"
   xmlns:cc="http://creativecommons.org/ns#"
   xmlns:rdf="http://www.w3.org/1999/02/22-rdf-syntax-ns#"
   xmlns:svg="http://www.w3.org/2000/svg"
   xmlns="http://www.w3.org/2000/svg"
   xmlns:xlink="http://www.w3.org/1999/xlink"
   xmlns:sodipodi="http://sodipodi.sourceforge.net/DTD/sodipodi-0.dtd"
   xmlns:inkscape="http://www.inkscape.org/namespaces/inkscape"
   width="128"
   height="128"
   id="svg2"
   version="1.1"
   inkscape:version="0.48.0 r9654"
   sodipodi:docname="icon.svg">
  <defs
     id="defs4">
    <marker
       inkscape:stockid="Arrow2Mend"
       orient="auto"
       refY="0.0"
       refX="0.0"
       id="Arrow2Mend"
       style="overflow:visible;">
      <path
         id="path3622"
         style="font-size:12.0;fill-rule:evenodd;stroke-width:0.62500000;stroke-linejoin:round;"
         d="M 8.7185878,4.0337352 L -2.2072895,0.016013256 L 8.7185884,-4.0017078 C 6.9730900,-1.6296469 6.9831476,1.6157441 8.7185878,4.0337352 z "
         transform="scale(0.6) rotate(180) translate(0,0)" />
    </marker>
    <marker
       inkscape:stockid="Arrow1Send"
       orient="auto"
       refY="0.0"
       refX="0.0"
       id="Arrow1Send"
       style="overflow:visible;">
      <path
         id="path3610"
         d="M 0.0,0.0 L 5.0,-5.0 L -12.5,0.0 L 5.0,5.0 L 0.0,0.0 z "
         style="fill-rule:evenodd;stroke:#000000;stroke-width:1.0pt;marker-start:none;"
         transform="scale(0.2) rotate(180) translate(6,0)" />
    </marker>
    <linearGradient
       inkscape:collect="always"
       id="linearGradient4938">
      <stop
         style="stop-color:#ececec;stop-opacity:1;"
         offset="0"
         id="stop4940" />
      <stop
         style="stop-color:#ececec;stop-opacity:0;"
         offset="1"
         id="stop4942" />
    </linearGradient>
    <linearGradient
       id="linearGradient4916">
      <stop
         style="stop-color:#000000;stop-opacity:0.39215687;"
         offset="0"
         id="stop4918" />
      <stop
         style="stop-color:#ffff00;stop-opacity:0;"
         offset="1"
         id="stop4920" />
    </linearGradient>
    <linearGradient
       id="linearGradient4792">
      <stop
         style="stop-color:#ff0000;stop-opacity:0.63529414;"
         offset="0"
         id="stop4794" />
      <stop
         style="stop-color:#000000;stop-opacity:0;"
         offset="1"
         id="stop4796" />
    </linearGradient>
    <marker
       inkscape:stockid="Arrow1Lend"
       orient="auto"
       refY="0.0"
       refX="0.0"
       id="Arrow1Lend"
       style="overflow:visible;">
      <path
         id="path3598"
         d="M 0.0,0.0 L 5.0,-5.0 L -12.5,0.0 L 5.0,5.0 L 0.0,0.0 z "
         style="fill-rule:evenodd;stroke:#000000;stroke-width:1.0pt;marker-start:none;"
         transform="scale(0.8) rotate(180) translate(12.5,0)" />
    </marker>
    <inkscape:perspective
       sodipodi:type="inkscape:persp3d"
       inkscape:vp_x="0 : 526.18109 : 1"
       inkscape:vp_y="0 : 1000 : 0"
       inkscape:vp_z="744.09448 : 526.18109 : 1"
       inkscape:persp3d-origin="372.04724 : 350.78739 : 1"
       id="perspective10" />
    <linearGradient
       inkscape:collect="always"
       xlink:href="#linearGradient4792"
       id="linearGradient4798"
       x1="0.80346006"
       y1="988.5741"
       x2="61.289257"
       y2="988.5741"
       gradientUnits="userSpaceOnUse"
       gradientTransform="matrix(0.99998679,0,0,0.75422193,-58.180247,-1743.8991)" />
    <inkscape:perspective
       id="perspective4810"
       inkscape:persp3d-origin="0.5 : 0.33333333 : 1"
       inkscape:vp_z="1 : 0.5 : 1"
       inkscape:vp_y="0 : 1000 : 0"
       inkscape:vp_x="0 : 0.5 : 1"
       sodipodi:type="inkscape:persp3d" />
    <inkscape:perspective
       id="perspective4810-9"
       inkscape:persp3d-origin="0.5 : 0.33333333 : 1"
       inkscape:vp_z="1 : 0.5 : 1"
       inkscape:vp_y="0 : 1000 : 0"
       inkscape:vp_x="0 : 0.5 : 1"
       sodipodi:type="inkscape:persp3d" />
    <inkscape:perspective
       id="perspective4810-0"
       inkscape:persp3d-origin="0.5 : 0.33333333 : 1"
       inkscape:vp_z="1 : 0.5 : 1"
       inkscape:vp_y="0 : 1000 : 0"
       inkscape:vp_x="0 : 0.5 : 1"
       sodipodi:type="inkscape:persp3d" />
    <inkscape:perspective
       id="perspective4810-6"
       inkscape:persp3d-origin="0.5 : 0.33333333 : 1"
       inkscape:vp_z="1 : 0.5 : 1"
       inkscape:vp_y="0 : 1000 : 0"
       inkscape:vp_x="0 : 0.5 : 1"
       sodipodi:type="inkscape:persp3d" />
    <inkscape:perspective
       id="perspective4810-7"
       inkscape:persp3d-origin="0.5 : 0.33333333 : 1"
       inkscape:vp_z="1 : 0.5 : 1"
       inkscape:vp_y="0 : 1000 : 0"
       inkscape:vp_x="0 : 0.5 : 1"
       sodipodi:type="inkscape:persp3d" />
    <inkscape:perspective
       id="perspective4810-1"
       inkscape:persp3d-origin="0.5 : 0.33333333 : 1"
       inkscape:vp_z="1 : 0.5 : 1"
       inkscape:vp_y="0 : 1000 : 0"
       inkscape:vp_x="0 : 0.5 : 1"
       sodipodi:type="inkscape:persp3d" />
    <inkscape:perspective
       id="perspective4810-65"
       inkscape:persp3d-origin="0.5 : 0.33333333 : 1"
       inkscape:vp_z="1 : 0.5 : 1"
       inkscape:vp_y="0 : 1000 : 0"
       inkscape:vp_x="0 : 0.5 : 1"
       sodipodi:type="inkscape:persp3d" />
    <inkscape:perspective
       id="perspective4810-8"
       inkscape:persp3d-origin="0.5 : 0.33333333 : 1"
       inkscape:vp_z="1 : 0.5 : 1"
       inkscape:vp_y="0 : 1000 : 0"
       inkscape:vp_x="0 : 0.5 : 1"
       sodipodi:type="inkscape:persp3d" />
    <inkscape:perspective
       id="perspective4810-2"
       inkscape:persp3d-origin="0.5 : 0.33333333 : 1"
       inkscape:vp_z="1 : 0.5 : 1"
       inkscape:vp_y="0 : 1000 : 0"
       inkscape:vp_x="0 : 0.5 : 1"
       sodipodi:type="inkscape:persp3d" />
    <inkscape:perspective
       id="perspective4810-69"
       inkscape:persp3d-origin="0.5 : 0.33333333 : 1"
       inkscape:vp_z="1 : 0.5 : 1"
       inkscape:vp_y="0 : 1000 : 0"
       inkscape:vp_x="0 : 0.5 : 1"
       sodipodi:type="inkscape:persp3d" />
    <inkscape:perspective
       id="perspective4810-4"
       inkscape:persp3d-origin="0.5 : 0.33333333 : 1"
       inkscape:vp_z="1 : 0.5 : 1"
       inkscape:vp_y="0 : 1000 : 0"
       inkscape:vp_x="0 : 0.5 : 1"
       sodipodi:type="inkscape:persp3d" />
    <linearGradient
       inkscape:collect="always"
       xlink:href="#linearGradient4938"
       id="linearGradient4944"
       x1="65.363366"
       y1="83.390728"
       x2="121.97439"
       y2="83.390728"
       gradientUnits="userSpaceOnUse"
       gradientTransform="matrix(0.65754512,0,0,0.7553938,34.772208,943.50174)" />
    <linearGradient
       inkscape:collect="always"
       xlink:href="#linearGradient4792"
       id="linearGradient3968"
       gradientUnits="userSpaceOnUse"
       gradientTransform="matrix(0.99998679,0,0,0.75422193,-58.180247,-1743.8991)"
       x1="0.80346006"
       y1="988.5741"
       x2="61.289257"
       y2="988.5741" />
    <linearGradient
       inkscape:collect="always"
       xlink:href="#linearGradient4938"
       id="linearGradient3970"
       gradientUnits="userSpaceOnUse"
       gradientTransform="matrix(0.65754512,0,0,0.7553938,34.772208,943.50174)"
       x1="65.363366"
       y1="83.390728"
       x2="121.97439"
       y2="83.390728" />
  </defs>
  <sodipodi:namedview
     id="base"
     pagecolor="#000000"
     bordercolor="#666666"
     borderopacity="1.0"
     inkscape:pageopacity="0"
     inkscape:pageshadow="2"
     inkscape:zoom="2.1"
     inkscape:cx="-16.952381"
     inkscape:cy="64"
     inkscape:document-units="px"
     inkscape:current-layer="layer1"
     showgrid="false"
     inkscape:window-width="1280"
     inkscape:window-height="751"
     inkscape:window-x="0"
     inkscape:window-y="0"
     inkscape:window-maximized="1" />
  <metadata
     id="metadata7">
    <rdf:RDF>
      <cc:Work
         rdf:about="">
        <dc:format>image/svg+xml</dc:format>
        <dc:type
           rdf:resource="http://purl.org/dc/dcmitype/StillImage" />
        <dc:title />
      </cc:Work>
    </rdf:RDF>
  </metadata>
  <g
     inkscape:label="Layer 1"
     inkscape:groupmode="layer"
     id="layer1"
     transform="translate(0,-924.36218)">
    <g
       id="g3822">
      <rect
         transform="translate(0,924.36218)"
         y="16.095238"
         x="18.095238"
         height="96"
         width="96"
         id="rect3034"
         style="fill:#dcdcdc;stroke:none;stroke-width:3;stroke-miterlimit:4;stroke-opacity:1;stroke-dasharray:none;stroke-dashoffset:0;fill-opacity:1" />
      <g
         transform="matrix(1.0269251,0,0,0.99512508,9.0631997,-4.6191794)"
         id="g3946">
        <path
           style="fill:none;stroke:#000000;stroke-width:3;stroke-linecap:butt;stroke-linejoin:miter;stroke-miterlimit:4;stroke-opacity:1;stroke-dasharray:none;marker-end:none"
           d="m 11.18277,957.34019 -0.04932,-0.0684 0.161648,84.38071 84.219069,-0.1568"
           id="path3590"
           inkscape:connector-curvature="0" />
        <path
           style="fill:none;stroke:#0000fe;stroke-width:1.39565694;stroke-linecap:butt;stroke-linejoin:miter;stroke-miterlimit:4;stroke-opacity:1;stroke-dasharray:none"
           d="m 19.61705,1034.3166 c 0,-0.3646 0,-0.7292 0,-1.0938 0,-0.052 0,-0.1042 0,-0.1564 0,-0.052 -0.03476,-0.1193 0,-0.1562 0.03476,-0.037 0.112712,0.038 0.147473,0 0.03548,-0.037 -0.0355,-0.5875 0,-0.6252 0.03476,-0.036 0.112712,0.038 0.147472,0 0.03548,-0.037 -0.03548,-0.5874 0,-0.6251 0.03476,-0.037 0.112714,0.038 0.147473,0 0.03015,-0.032 -0.02923,-0.4067 0,-0.4686 0.03109,-0.066 0.116383,-0.091 0.147473,-0.1563 0.04396,-0.093 -0.06951,-0.2389 0,-0.3127 0.03476,-0.038 0.112712,0.038 0.147473,0 0.06951,-0.073 -0.06952,-0.2388 0,-0.3124 0.03476,-0.038 0.112711,0.036 0.147473,0 0.06951,-0.073 -0.04396,-0.2194 0,-0.3126 0.03109,-0.066 0.116382,-0.09 0.147472,-0.1564 0.02199,-0.047 -0.02199,-0.1095 0,-0.1562 0.03109,-0.065 0.116383,-0.09 0.147473,-0.1562 0.04396,-0.093 -0.06952,-0.2389 0,-0.3126 0.03476,-0.038 0.112712,0.038 0.147472,0 0.03476,-0.038 -0.03476,-0.1194 0,-0.1562 0.03476,-0.036 0.112714,0.036 0.147473,0 0.03476,-0.036 -0.03476,-0.1196 0,-0.1562 0.03476,-0.037 0.112713,0.036 0.147473,0 0.03476,-0.037 -0.03476,-0.1196 0,-0.1563 0.03476,-0.038 0.112712,0.036 0.147472,0 0.03476,-0.038 -0.03476,-0.1196 0,-0.1564 0.03476,-0.036 0.112713,0.038 0.147473,0 0.03476,-0.036 -0.03476,-0.1194 0,-0.1563 0.03476,-0.037 0.112714,0.037 0.147472,0 0.03476,-0.037 -0.03476,-0.1193 0,-0.1563 0.06952,-0.073 0.225427,0.073 0.294945,0 0.03476,-0.037 -0.03476,-0.1192 0,-0.1563 0.06952,-0.073 0.225428,0.073 0.294948,0 0.03476,-0.037 -0.03476,-0.1193 0,-0.156 0.06952,-0.073 0.207007,0.046 0.294945,0 0.06218,-0.033 0.0853,-0.1234 0.147472,-0.1564 0.05333,-0.028 0.634791,0 0.737363,0 0.294946,0 0.58989,0 0.884837,0 0.06642,0 0.397536,-0.024 0.442418,0 0.06217,0.033 0.09831,0.1041 0.147472,0.1564 0.09832,0 0.201676,-0.033 0.294947,0 0.06594,0.024 0.08964,0.1152 0.147471,0.156 0.09145,0.065 0.203488,0.092 0.294946,0.1563 0.05786,0.041 0.08964,0.1154 0.147474,0.1563 0.09145,0.065 0.203485,0.092 0.294944,0.1563 0.05786,0.041 0.08963,0.1154 0.147473,0.1564 0.07426,0.3442 0.303378,0.082 0.442418,0.1563 0.06217,0.033 0.0853,0.1232 0.147473,0.1562 0.04396,0.023 0.112713,-0.036 0.147472,0 0.03476,0.036 -0.03476,0.1194 0,0.1562 0.03549,0.038 0.554405,-0.039 0.589891,0 0.03476,0.038 -0.03476,0.1195 0,0.1563 0.06951,0.073 0.225428,-0.073 0.294946,0 0.03476,0.038 -0.03476,0.1193 0,0.1563 0.06952,0.073 0.20701,-0.046 0.294945,0 0.06217,0.033 0.0853,0.1233 0.147474,0.1562 0.08793,0.047 0.207008,-0.046 0.294944,0 0.06217,0.033 0.0853,0.1234 0.147473,0.1562 0.04397,0.023 0.09832,0 0.147473,0 0.04915,0 0.09832,0 0.147473,0 0.245787,0 0.491575,0 0.737364,0 0.05416,0 0.583956,0.01 0.58989,0 0.03476,-0.036 -0.03476,-0.1193 0,-0.1562 0.0495,-0.052 0.245449,0.053 0.294945,0 0.03476,-0.036 -0.03476,-0.1193 0,-0.1562 0.03476,-0.037 0.112715,0.037 0.147474,0 0.03476,-0.037 -0.03476,-0.1195 0,-0.1563 0.06951,-0.073 0.225427,0.073 0.294945,0 0.03476,-0.037 -0.03476,-0.1195 0,-0.1563 0.03476,-0.038 0.112713,0.038 0.147472,0 0.03476,-0.038 -0.03476,-0.1194 0,-0.1562 0.393261,0 -0.04916,0.052 0.147472,-0.1562 0.03476,-0.037 0.112715,0.036 0.147474,0 0.04955,-0.053 -0.04954,-0.2602 0,-0.3127 0.03476,-0.036 0.112712,0.038 0.147473,0 0.06952,-0.073 -0.06951,-0.2389 0,-0.3126 0.03476,-0.037 0.112713,0.037 0.147472,0 0.03476,-0.037 0,-0.1041 0,-0.1563 0.04915,0 0.112714,0.038 0.147474,0 0.06951,-0.073 -0.06952,-0.2387 0,-0.3124 0.03476,-0.038 0.112713,0.036 0.147472,0 0.07374,-0.078 -0.07374,-0.3908 0,-0.4688 0.03476,-0.037 0.112713,0.037 0.147473,0 0.06951,-0.073 -0.06951,-0.2389 0,-0.3126 0.03476,-0.038 0.112712,0.038 0.147472,0 0.03547,-0.038 -0.03548,-0.5874 0,-0.6251 0.03476,-0.037 0.112713,0.036 0.147472,0 0.03476,-0.037 0,-0.1041 0,-0.1562 0,-0.3125 0,-0.625 0,-0.9377 0,-0.051 -0.03476,-0.1194 0,-0.1562 0.03476,-0.038 0.112715,0.037 0.147474,0 0.0047,-0.01 0,-0.4309 0,-0.469 0,-0.4165 0,-0.8333 0,-1.25 0,-0.081 -0.01938,-0.584 0,-0.625 0.03109,-0.066 0.116383,-0.091 0.147473,-0.1563 0.01964,-0.041 0,-0.867 0,-0.9377 0,-0.052 -0.02199,-0.1098 0,-0.1564 0.03109,-0.065 0.116383,-0.09 0.147473,-0.1562 0.04828,-0.1021 -0.04362,-0.6426 0,-0.7813 0.03476,-0.1106 0.112711,-0.202 0.147472,-0.3125 0.01553,-0.05 0,-0.1042 0,-0.1564 0,-0.1472 -0.02797,-0.6923 0,-0.7814 0.02197,-0.069 0.125489,-0.086 0.147473,-0.1561 0.03345,-0.1063 -0.03911,-0.6986 0,-0.7814 0.03109,-0.065 0.116384,-0.09 0.147473,-0.1562 0.02923,-0.061 -0.03015,-0.4368 0,-0.469 0.03476,-0.038 0.125487,0.047 0.147474,0 0.0812,-0.1721 -0.05765,-0.4417 0,-0.6249 0.03476,-0.1105 0.112711,-0.202 0.147471,-0.3126 0.02988,-0.095 -0.02987,-0.2176 0,-0.3125 0.03476,-0.1107 0.112714,-0.2021 0.147472,-0.3127 0.02712,-0.086 -0.03154,-0.5916 0,-0.6249 0.03476,-0.037 0.112713,0.038 0.147472,0 0.03548,-0.037 -0.03547,-0.5875 0,-0.6252 0.03476,-0.036 0.112714,0.038 0.147475,0 0.06951,-0.073 -0.0311,-0.2137 0,-0.3126 0.03476,-0.1103 0.112712,-0.2019 0.147472,-0.3124 0.03109,-0.099 -0.04396,-0.2195 0,-0.3125 0.03109,-0.066 0.116381,-0.09 0.147472,-0.1563 0.059,-0.1251 -0.059,-0.3438 0,-0.4689 0.03109,-0.066 0.116383,-0.09 0.147472,-0.1563 0.04396,-0.093 -0.04396,-0.2193 0,-0.3125 0.0311,-0.066 0.116384,-0.09 0.147474,-0.1562 0.04396,-0.093 -0.04397,-0.2194 0,-0.3126 0.03109,-0.065 0.125489,-0.086 0.147474,-0.1564 0.03109,-0.099 -0.0311,-0.2136 0,-0.3123 0.02199,-0.069 0.125488,-0.086 0.147472,-0.1563 0.03109,-0.099 -0.02385,-0.2115 0,-0.3126 0.05331,-0.226 0.225425,-0.4041 0.294945,-0.6252 0.01554,-0.049 -0.02197,-0.1096 0,-0.1562 0.03109,-0.065 0.116383,-0.09 0.147472,-0.1562 0.02199,-0.047 0,-0.1043 0,-0.1562 0,-0.1042 -0.03109,-0.2138 0,-0.3128 0.04397,-0.1397 0.250979,-0.1726 0.294947,-0.3125 0.03109,-0.099 -0.03109,-0.2135 0,-0.3125 0.02199,-0.069 0.116383,-0.09 0.147471,-0.1563 0.02199,-0.046 -0.02199,-0.1095 0,-0.1561 0.03109,-0.066 0.116384,-0.09 0.147474,-0.1563 0.02197,-0.047 -0.02199,-0.1097 0,-0.1563 0.03109,-0.066 0.116384,-0.091 0.147472,-0.1563 0.02198,-0.047 -0.02199,-0.1097 0,-0.1563 0.0311,-0.065 0.116383,-0.09 0.147473,-0.1561 0.04396,-0.093 -0.06951,-0.2391 0,-0.3127 0.03476,-0.038 0.112712,0.038 0.147473,0 0.03476,-0.038 -0.022,-0.1097 0,-0.1562 0.06217,-0.1319 0.232766,-0.1809 0.294946,-0.3126 0.02197,-0.047 -0.022,-0.1095 0,-0.1563 0.163036,-0.3456 0.09153,-0.048 0.294944,-0.1564 0.07876,-0.041 0.36478,-0.3864 0.442418,-0.4685 0.08673,-0.092 0.5216,-0.5891 0.589891,-0.6253 0.04396,-0.023 0.103506,0.023 0.147473,0 0.06217,-0.033 0.08963,-0.1155 0.147472,-0.1562 0.09146,-0.064 0.203488,-0.092 0.294947,-0.1563 0.05785,-0.041 0.0853,-0.1233 0.147472,-0.1563 0.04396,-0.023 0.100838,0.016 0.147473,0 0.104278,-0.037 0.190667,-0.1193 0.294947,-0.1562 0.04662,-0.016 0.112711,0.036 0.147472,0 0.03476,-0.037 -0.03476,-0.1195 0,-0.1564 0.03015,-0.032 0.383946,0.031 0.442418,0 0.06218,-0.033 0.0853,-0.1232 0.147472,-0.156 0.05847,-0.031 0.412268,0.032 0.442418,0 0.03476,-0.037 -0.04396,-0.1331 0,-0.1564 0.294945,-0.1563 0.221209,0.079 0.442418,0 0.104279,-0.036 0.190667,-0.1194 0.294946,-0.1563 0.09326,-0.033 0.207009,0.047 0.294946,0 0.06218,-0.033 0.0853,-0.1233 0.147471,-0.1562 0.08,-0.042 0.549541,0.042 0.589892,0 0.03476,-0.037 -0.03476,-0.1195 0,-0.1563 0.04036,-0.042 0.509889,0.042 0.589892,0 0.06218,-0.033 0.08152,-0.133 0.147472,-0.1563 6.68e-4,-2e-4 0.442276,10e-5 0.442417,0 0.03476,-0.037 -0.03476,-0.1193 0,-0.1563 0.07374,-0.079 0.368683,0.079 0.442419,0 0.03476,-0.037 -0.03476,-0.1195 0,-0.1562 0.07374,-0.079 0.368681,0.079 0.442418,0 0.03476,-0.037 -0.03476,-0.1195 0,-0.1563 0.03476,-0.037 0.103506,0.023 0.147472,0 0.12436,-0.066 0.170587,-0.2466 0.294947,-0.3127 0.04397,-0.023 0.103504,0.023 0.147472,0 0.124359,-0.066 0.170586,-0.2464 0.294945,-0.3123 0.04396,-0.024 0.112714,0.037 0.147473,0 0.03476,-0.037 -0.02197,-0.1098 0,-0.1562 0.03109,-0.066 0.09832,-0.1043 0.147473,-0.1564 0.07764,-0.082 0.403036,-0.3854 0.442418,-0.4689 0.02199,-0.047 -0.02199,-0.1096 0,-0.1562 0.03109,-0.066 0.116382,-0.09 0.147474,-0.1563 0.02197,-0.047 -0.02199,-0.1096 0,-0.1563 0.09947,-0.2108 0.195474,-0.1017 0.294944,-0.3124 0.02199,-0.047 -0.02199,-0.1098 0,-0.1563 0.03109,-0.066 0.116384,-0.09 0.147474,-0.1562 0.02199,-0.047 -0.02197,-0.1098 0,-0.1564 0.03109,-0.066 0.116381,-0.09 0.147471,-0.1563 0.022,-0.047 -0.02199,-0.1097 0,-0.1562 0.03109,-0.066 0.116384,-0.09 0.147473,-0.1564 0.04396,-0.093 -0.06951,-0.2388 0,-0.3125 0.03476,-0.037 0.12549,0.047 0.147473,0 0.04397,-0.093 -0.03109,-0.2137 0,-0.3125 0.04397,-0.1398 0.232766,-0.1808 0.294946,-0.3125 0.02199,-0.047 -0.02199,-0.10971 0,-0.15636 0.03109,-0.0661 0.116382,-0.0904 0.147472,-0.15622 0.02199,-0.0466 -0.02198,-0.1097 0,-0.15627 0.03109,-0.0658 0.116382,-0.0904 0.147472,-0.15628 0.03908,-0.0827 -0.03908,-0.22976 0,-0.31255 0.03109,-0.0658 0.116384,-0.0903 0.147474,-0.15627 0.059,-0.12501 -0.059,-0.34379 0,-0.46882 0.03109,-0.0658 0.116383,-0.0903 0.147472,-0.15625 0.04634,-0.0983 -0.04634,-0.52688 0,-0.62509 0.03109,-0.0659 0.125489,-0.0865 0.147474,-0.15627 0.03109,-0.0989 0,-0.20837 0,-0.31255 0,-0.052 -0.02199,-0.10968 0,-0.15627 0.03109,-0.0658 0.116382,-0.0903 0.14747,-0.15627 0.02193,-0.0466 0,-0.87189 0,-0.93763 0,-0.0521 -0.02199,-0.10968 0,-0.15627 0.0311,-0.0659 0.116385,-0.0903 0.147474,-0.15628 0.02197,-0.0465 0,-0.10416 0,-0.15627 0,-0.10417 0,-0.20834 0,-0.31252 0,-0.26048 0,-0.52093 0,-0.78137 0,-0.1087 -0.02667,-0.72485 0,-0.78135 0.0311,-0.0658 0.116383,-0.0904 0.147474,-0.15627 0.01907,-0.0403 0,-0.82687 0,-0.93763 0,-0.0521 -0.03476,-0.11945 0,-0.15628 0.03476,-0.0369 0.112711,0.0369 0.147473,0 0.04036,-0.0427 -0.04001,-0.5403 0,-0.62508 0.03109,-0.0658 0.116382,-0.0903 0.147472,-0.15629 0.02197,-0.0466 0,-0.10417 0,-0.15626 0,-0.10418 -0.03109,-0.2137 0,-0.31253 0.02197,-0.0698 0.125489,-0.0865 0.147471,-0.15628 0.03109,-0.0989 -0.03109,-0.21371 0,-0.31255 0.02199,-0.0699 0.116386,-0.0904 0.147474,-0.15626 0.04396,-0.0932 -0.04396,-0.21936 0,-0.31255 0.03109,-0.0658 0.116382,-0.0903 0.147473,-0.15626 0.02923,-0.0619 -0.03015,-0.43687 0,-0.46882 0.03476,-0.0369 0.112712,0.0368 0.147473,0 0.06951,-0.0738 -0.06951,-0.23887 0,-0.31254 0.03476,-0.0368 0.112713,0.0369 0.147471,0 0.03476,-0.0368 -0.022,-0.10969 0,-0.15626 0.03109,-0.0659 0.116384,-0.0904 0.147475,-0.15629 0.02199,-0.0465 -0.03476,-0.11943 0,-0.15627 0.03476,-0.0369 0.112713,0.0369 0.147471,0 0.06951,-0.0737 -0.06952,-0.23886 0,-0.31254 0.03476,-0.0369 0.112713,0.0369 0.147474,0 0.03476,-0.0369 -0.02199,-0.10968 0,-0.15627 0.0311,-0.0658 0.116381,-0.0904 0.147473,-0.15627 0.022,-0.0466 -0.03476,-0.11943 0,-0.15628 0.03476,-0.0369 0.103503,0.0233 0.147472,0 0.02823,-0.0149 0.575776,-0.59516 0.58989,-0.62506 0.02199,-0.0466 -0.03476,-0.11944 0,-0.1563 0.03476,-0.0368 0.103507,0.0233 0.147473,0 0.06217,-0.0329 0.09832,-0.10417 0.147472,-0.15626 0.04916,-0.0521 0.116383,-0.0904 0.147474,-0.15626 0.02199,-0.0466 -0.03476,-0.11944 0,-0.15629 0.03476,-0.0369 0.103505,0.0232 0.147472,0 0.489106,-0.51827 -0.139039,0.0737 0.294946,-0.15625 0.176967,-0.0937 0.265452,-0.37507 0.442419,-0.46882 0.04396,-0.0233 0.112712,0.037 0.147471,0 0.305127,-0.32333 -0.466273,0.0127 0.147474,-0.31254 0.04396,-0.0232 0.103504,0.0233 0.147473,0 0.195254,-0.10346 0.09969,-0.2091 0.294945,-0.31256 0.04396,-0.0233 0.103505,0.0233 0.147471,0 0.124362,-0.0658 0.170587,-0.24664 0.294948,-0.31253 0.04396,-0.0233 0.103503,0.0233 0.147471,0 0.489107,-0.5183 -0.139038,0.0736 0.294945,-0.15626 0.06218,-0.0329 0.08964,-0.11542 0.147474,-0.15628 0.09145,-0.0646 0.203486,-0.0916 0.294945,-0.15626 0.115688,-0.0816 0.163042,-0.26596 0.294945,-0.31255 0.09326,-0.0329 0.201676,0.0329 0.294946,0 0.06595,-0.0232 0.0853,-0.12333 0.147473,-0.15628 0.04396,-0.0233 0.100837,0.0164 0.147473,0 1.068206,-0.37731 -0.232508,0.045 0.442418,-0.31254 0.04396,-0.0232 0.103503,0.0233 0.147474,0 0.06218,-0.0329 0.08152,-0.13297 0.147472,-0.15628 0.139904,-0.0494 0.302512,0.0495 0.442417,0 0.10428,-0.0369 0.190668,-0.11944 0.294946,-0.15627 0.04662,-0.0164 0.09832,0 0.147472,0 0.09831,0 0.201675,0.0329 0.294946,0 0.06595,-0.0232 0.0853,-0.12331 0.147473,-0.15627 0.04396,-0.0233 0.100837,0.0164 0.147472,0 0.104279,-0.0368 0.190668,-0.11943 0.294946,-0.15626 0.04662,-0.0164 0.103505,0.0233 0.147474,0 0.06218,-0.0329 0.0853,-0.12333 0.147472,-0.15629 0.09269,-0.0491 0.497201,0.0491 0.58989,0 0.06218,-0.0329 0.0853,-0.1233 0.147473,-0.15625 0.09269,-0.0491 0.497201,0.0491 0.589892,0 0.06217,-0.0329 0.08529,-0.12333 0.147472,-0.15626 0.05848,-0.031 0.412268,0.032 0.442418,0 0.03476,-0.0369 -0.04397,-0.13299 0,-0.15629 0.08793,-0.0466 0.201674,0.0329 0.294944,0 0.06595,-0.0233 0.0853,-0.12332 0.147473,-0.15626 0.08793,-0.0466 0.225427,0.0737 0.294947,0 0.03476,-0.0369 -0.02199,-0.1097 0,-0.15628 0.144747,-0.30677 0.280256,-0.0704 0.442417,-0.15627 0.124362,-0.0659 0.163043,-0.26596 0.294945,-0.31254 0.09327,-0.0329 0.201677,0.0329 0.294947,0 0.06595,-0.0233 0.08963,-0.1154 0.147472,-0.15628 0.245577,-0.17348 0.657028,-0.28776 0.884836,-0.46881 0.111232,-0.0884 0.183715,-0.22414 0.294946,-0.31255 0.08793,-0.0699 0.207009,-0.0863 0.294944,-0.15626 0.111232,-0.0883 0.183716,-0.22414 0.294947,-0.31255 0.08793,-0.0698 0.217221,-0.0738 0.294945,-0.15628 0.07772,-0.0823 0.06974,-0.23016 0.147472,-0.31252 0.07772,-0.0824 0.203488,-0.0917 0.294946,-0.15627 0.05786,-0.0408 0.09831,-0.10419 0.147473,-0.15628 0.09831,-0.10419 0.19663,-0.20836 0.294945,-0.31253 0.09831,-0.10419 0.217821,-0.18996 0.294947,-0.31255 0.06097,-0.097 0.0865,-0.21562 0.147472,-0.31255 0.07556,-0.12011 0.219375,-0.19241 0.294945,-0.31254 0.06265,-0.0996 0.418505,-0.83627 0.442417,-0.93761 0.02384,-0.10109 -0.03109,-0.21373 0,-0.31255 0.04396,-0.13977 0.232766,-0.18077 0.294946,-0.31255 0.04396,-0.0932 -0.04396,-0.21936 0,-0.31255 0.03109,-0.0658 0.116383,-0.0903 0.147473,-0.15627 0.04396,-0.0932 -0.04397,-0.21934 0,-0.31254 0.03109,-0.0658 0.125489,-0.0864 0.147474,-0.15627 0.03109,-0.0989 -0.03109,-0.2137 0,-0.31254 0.02199,-0.0698 0.116382,-0.0904 0.147471,-0.15627 0.02199,-0.0466 -0.02199,-0.10968 0,-0.15628 0.03109,-0.0658 0.125491,-0.0863 0.147474,-0.15626 0.03109,-0.0989 -0.0311,-0.21372 0,-0.31256 0.02199,-0.0698 0.125488,-0.0864 0.147473,-0.15625 0,-1.03658 -0.06951,0.22098 0.147473,-0.46882 0.03109,-0.0989 -0.03109,-0.2137 0,-0.31253 0.02199,-0.0699 0.116381,-0.0904 0.147472,-0.15628 0.02199,-0.0466 -0.01554,-0.10686 0,-0.15626 0.03476,-0.11052 0.112713,-0.20206 0.147472,-0.31256 0.146333,-0.46519 -0.349194,0.32065 0.147473,-0.46881 0.03856,-0.0612 0.125489,-0.0863 0.147473,-0.15627 0.03109,-0.0989 -0.02384,-0.21147 0,-0.31253 0.178035,-0.75463 0.07008,0.008 0.294945,-0.46882 0.02199,-0.0465 -0.02199,-0.10968 0,-0.15629 0.03109,-0.0658 0.116384,-0.0904 0.147473,-0.15625 0.03929,-0.0833 -0.0393,-0.22926 0,-0.31255 0.03109,-0.0658 0.116383,-0.0904 0.147472,-0.15627 0.02199,-0.0465 -0.02199,-0.10968 0,-0.15627 0.0311,-0.0658 0.116383,-0.0904 0.147475,-0.15628 0.02199,-0.0466 -0.02199,-0.10968 0,-0.15627 0.03109,-0.0658 0.116381,-0.0904 0.147471,-0.15627 0.02199,-0.0466 -0.02199,-0.10967 0,-0.15629 0.03109,-0.0658 0.116383,-0.0903 0.147473,-0.15625 0.02199,-0.0465 0,-0.10418 0,-0.15627 0.04916,-0.10417 0.0865,-0.21564 0.147473,-0.31254 0.03856,-0.0612 0.116382,-0.0904 0.147473,-0.15627 0.02199,-0.0466 -0.022,-0.10969 0,-0.15627 0.06218,-0.13178 0.21782,-0.18995 0.294945,-0.31254 0.06097,-0.097 0.0865,-0.21563 0.147472,-0.31254 0.03857,-0.0612 0.09832,-0.10418 0.147472,-0.15629 0.09832,-0.10418 0.183716,-0.22413 0.294946,-0.31254 0.175871,-0.13977 0.434441,-0.14781 0.589891,-0.31253 0.753642,-0.79861 -0.618349,0.21796 0.44242,-0.6251 0.17587,-0.13976 0.43444,-0.1478 0.589889,-0.31253 0.07773,-0.0824 0.06975,-0.23019 0.147474,-0.31255 0.575545,-0.60988 0.07919,0.0361 0.442418,-0.15627 0.06217,-0.0329 0.0853,-0.12333 0.147472,-0.15626 0.04396,-0.0232 0.112713,0.037 0.147474,0 0.03476,-0.0369 -0.03476,-0.11944 0,-0.15628 0.04912,-0.0521 0.245823,0.0521 0.294945,0 0.03476,-0.0369 -0.03476,-0.11943 0,-0.15626 0.06951,-0.0738 0.225426,0.0736 0.294944,0 0.03476,-0.0369 -0.03476,-0.11943 0,-0.15628 0.06951,-0.0737 0.207011,0.0466 0.294945,0 0.06218,-0.0329 0.0853,-0.12332 0.147474,-0.15627 0.08793,-0.0466 0.207008,0.0466 0.294945,0 0.06218,-0.0329 0.0853,-0.12332 0.147473,-0.15628 0.09269,-0.0491 0.4972,0.0491 0.589891,0 0.06218,-0.0329 0.08152,-0.13296 0.147473,-0.15627 0.18654,-0.0658 0.39913,0.0505 0.589889,0 0.106639,-0.0282 0.18831,-0.12802 0.294948,-0.15626 0.09538,-0.0253 0.196631,0 0.294944,0 0.3441,0 0.688205,0 1.032311,0 0.09831,0 0.199566,0.0253 0.294944,0 0.106639,-0.0283 0.188306,-0.12802 0.294944,-0.15627 0.09538,-0.0253 0.19663,0 0.294945,0 0.09831,0 0.19663,0 0.294944,0 0.294952,0 0.589896,0 0.884841,0 0.09832,0 0.199566,0.0252 0.294945,0 0.106638,-0.0283 0.188305,-0.12803 0.294944,-0.15627 0.143071,-0.0379 0.294944,0 0.442421,0 0.344097,0 0.688202,0 1.032311,0 0.06634,0 0.397532,0.0237 0.442418,0 0.06216,-0.0329 0.08529,-0.12334 0.147471,-0.15628 0.101858,-0.0538 0.685594,0.0549 0.737359,0 0.03474,-0.0369 -0.03474,-0.11943 0,-0.15627 0.03016,-0.032 0.383943,0.031 0.442412,0 0.06223,-0.033 0.0853,-0.12334 0.147479,-0.15627 0.08794,-0.0465 0.225431,0.0737 0.294955,0 0.03474,-0.0369 -0.03474,-0.11943 0,-0.15627 0.03016,-0.0319 0.383942,0.031 0.442419,0 0.124343,-0.0658 0.170581,-0.24665 0.294941,-0.31254 0.04398,-0.0233 0.09831,0 0.147471,0 0.09832,-0.0521 0.203488,-0.0916 0.29494,-0.15628 0.0578,-0.0408 0.08153,-0.13297 0.147478,-0.15627 0.09326,-0.0329 0.201672,0.0329 0.294942,0 0.06596,-0.0232 0.0853,-0.12331 0.147469,-0.15626 0.04406,-0.0233 0.100837,0.0164 0.147478,0 0.104279,-0.0369 0.190663,-0.11945 0.29495,-0.15629 0.04665,-0.0164 0.103499,0.0233 0.147462,0 0.117899,-0.0624 0.177056,-0.25008 0.294956,-0.31253 0.04398,-0.0233 0.103501,0.0233 0.147471,0 0.06216,-0.0329 0.08529,-0.12333 0.147471,-0.15627 0.08793,-0.0466 0.225424,0.0735 0.294947,0 0.03474,-0.0369 -0.03474,-0.11943 0,-0.15628 0.03474,-0.0368 0.103508,0.0233 0.147471,0 0.12436,-0.0658 0.170582,-0.24665 0.29495,-0.31254 0.04405,-0.0233 0.103507,0.0233 0.147477,0 0.124351,-0.0658 0.170581,-0.24664 0.294933,-0.31253 0.04406,-0.0233 0.103492,0.0233 0.147479,0 0.124358,-0.0658 0.170596,-0.24666 0.29494,-0.31255 0.04391,-0.0233 0.112716,0.0368 0.147478,0 0.03474,-0.037 -0.03474,-0.11944 0,-0.15627 0.03474,-0.0369 0.112715,0.0368 0.147479,0 0.03474,-0.0369 -0.03474,-0.11944 0,-0.15626 0.03474,-0.0368 0.103492,0.0232 0.147462,0 0.613742,-0.3252 -0.157648,0.0109 0.14747,-0.31256 0.03474,-0.0369 0.112725,0.037 0.147471,0 0.03474,-0.0369 -0.03474,-0.11944 0,-0.15627 0.03474,-0.0369 0.112724,0.0369 0.147478,0 0.03474,-0.0369 -0.03474,-0.11943 0,-0.15626 0.03474,-0.0369 0.112716,0.037 0.147479,0 0.04909,-0.0521 -0.0491,-0.2605 0,-0.31255 0.03474,-0.0369 0.112708,0.037 0.14747,0 0.03474,-0.0369 -0.03474,-0.11945 0,-0.15627 0.03474,-0.0369 0.1035,0.0232 0.147462,0 0.61375,-0.32518 -0.15764,0.0108 0.147479,-0.31254 0.305118,-0.32333 -0.01192,0.4941 0.294956,-0.15626 0,-0.41675 -0.0491,0.0521 0.147462,-0.15628 0.03474,-0.037 -0.03474,-0.11944 0,-0.15628 0.03474,-0.037 0.112725,0.0368 0.147478,0 0.03474,-0.037 -0.03474,-0.11943 0,-0.15627 0.03474,-0.037 0.112716,0.0368 0.147479,0 0.04925,-0.0522 -0.04925,-0.26034 0,-0.31253 0.03474,-0.037 0.112708,0.0369 0.147463,0 0.0491,-0.0521 -0.04909,-0.2605 0,-0.31254 0.03474,-0.0369 0.112708,0.0369 0.147469,0 0.03474,-0.0369 -0.03474,-0.11945 0,-0.15628 0.03474,-0.0369 0.112725,0.0369 0.147479,0 0.04924,-0.0523 -0.04925,-0.26033 0,-0.31255 0.03474,-0.0369 0.112701,0.0369 0.147471,0 0.03474,-0.0369 -0.03474,-0.11943 0,-0.15627 0.03474,-0.0369 0.112707,0.0368 0.147471,0 0.04909,-0.0521 -0.0491,-0.26047 0,-0.31255 0.305117,-0.32333 -0.01192,0.49411 0.294939,-0.15626 0,-0.41672 -0.0491,0.0521 0.147486,-0.15627 0.03467,-0.0369 -0.02199,-0.10967 0,-0.15626 0.03108,-0.0658 0.09831,-0.10419 0.147479,-0.15627 0.0491,-0.0521 0.08529,-0.12333 0.147471,-0.15628 0.04398,-0.0233 0.103492,0.0233 0.147462,0 0.06216,-0.0329 0.09832,-0.10418 0.147486,-0.15627 0.0491,-0.0521 0.116373,-0.0904 0.147455,-0.15626 0.02199,-0.0466 -0.03474,-0.11945 0,-0.15631 0.07773,-0.0823 0.203489,-0.0916 0.29494,-0.15625 0.115701,-0.0816 0.170598,-0.24665 0.294949,-0.31254 0.04398,-0.0233 0.112716,0.0369 0.147479,0 0.03474,-0.0369 -0.03474,-0.11945 0,-0.15627 0.03474,-0.0369 0.112723,0.0368 0.147471,0 0.03474,-0.0369 -0.03474,-0.11944 0,-0.15628 0.03474,-0.0368 0.112715,0.0369 0.147477,0 0.03474,-0.0368 -0.03467,-0.11944 0,-0.15626 0.145471,-0.15415 0.294949,0.32019 0.294949,-0.15627"
           id="path4786"
           inkscape:connector-curvature="0" />
        <path
           style="fill:none;stroke:#fc0000;stroke-width:0.90772891px;stroke-linecap:butt;stroke-linejoin:miter;stroke-opacity:1"
           d="m 66.485093,950.07057 1.151875,95.09223"
           id="path4788"
           inkscape:connector-curvature="0" />
        <rect
           style="fill:url(#linearGradient3968);fill-opacity:1;stroke:none"
           id="rect4790"
           width="60.485001"
           height="95.648109"
           x="-57.376797"
           y="-1046.1189"
           transform="matrix(-0.99998258,0.00590293,-0.01037704,-0.99994616,0,0)" />
        <rect
           style="fill:#ffff00;fill-opacity:1;stroke:#000000;stroke-width:0.66399997;stroke-miterlimit:4;stroke-opacity:1;stroke-dasharray:none"
           id="rect4800"
           width="3.5148489"
           height="3.5148492"
           x="18.451271"
           y="1029.9498" />
        <rect
           style="fill:#ffff00;fill-opacity:1;stroke:#000000;stroke-width:0.66399997;stroke-miterlimit:4;stroke-opacity:1;stroke-dasharray:none"
           id="rect4800-9"
           width="3.5148489"
           height="3.5148492"
           x="25.60597"
           y="1027.6188" />
        <rect
           style="fill:#ffff00;fill-opacity:1;stroke:#000000;stroke-width:0.66399997;stroke-miterlimit:4;stroke-opacity:1;stroke-dasharray:none"
           id="rect4800-7"
           width="3.5148489"
           height="3.5148492"
           x="31.517443"
           y="1018.6678" />
        <rect
           style="fill:#ffff00;fill-opacity:1;stroke:#000000;stroke-width:0.66399997;stroke-miterlimit:4;stroke-opacity:1;stroke-dasharray:none"
           id="rect4800-50"
           width="3.5148489"
           height="3.5148492"
           x="35.18969"
           y="1006.8214" />
        <rect
           style="fill:#ffff00;fill-opacity:1;stroke:#000000;stroke-width:0.66399997;stroke-miterlimit:4;stroke-opacity:1;stroke-dasharray:none"
           id="rect4800-1"
           width="3.5148489"
           height="3.5148492"
           x="44.813473"
           y="1001.0208" />
        <rect
           style="fill:#ffff00;fill-opacity:1;stroke:#000000;stroke-width:0.66399997;stroke-miterlimit:4;stroke-opacity:1;stroke-dasharray:none"
           id="rect4800-2"
           width="3.5148489"
           height="3.5148492"
           x="47.709011"
           y="989.39557" />
        <rect
           style="fill:#ffff00;fill-opacity:1;stroke:#000000;stroke-width:0.66399997;stroke-miterlimit:4;stroke-opacity:1;stroke-dasharray:none"
           id="rect4800-27"
           width="3.5148489"
           height="3.5148492"
           x="56.782486"
           y="982.11938" />
        <g
           id="g3937"
           transform="matrix(0.71262568,0,0,0.68951291,18.294688,310.12442)">
          <rect
             y="981.44159"
             x="77.969872"
             height="50.106121"
             width="36.787689"
             id="rect4914"
             style="font-size:14px;fill:url(#linearGradient3970);fill-opacity:1;stroke:#979797;stroke-width:0.46796951;stroke-miterlimit:4;stroke-opacity:1;stroke-dasharray:none" />
          <text
             transform="scale(1.0646521,0.93927397)"
             id="text4946"
             y="1055.082"
             x="79.876991"
             style="font-size:11.1354847px;font-style:normal;font-weight:normal;fill:#000000;fill-opacity:1;stroke:none;font-family:Bitstream Vera Sans"
             xml:space="preserve"><tspan
               style="font-size:10.27890873px"
               y="1055.082"
               x="79.876991"
               id="tspan4948"
               sodipodi:role="line">X, Y</tspan></text>
          <text
             transform="scale(1.0274114,0.97331994)"
             id="text4950"
             y="1030.1708"
             x="76.748543"
             style="font-size:11.99839687px;font-style:normal;font-weight:normal;fill:#000000;fill-opacity:1;stroke:none;font-family:Bitstream Vera Sans"
             xml:space="preserve"><tspan
               style="font-size:10.51759148px"
               y="1030.1708"
               x="76.748543"
               id="tspan4952"
               sodipodi:role="line">10, 10</tspan><tspan
               style="font-size:10.51759148px"
               id="tspan4954"
               y="1043.3177"
               x="76.748543"
               sodipodi:role="line">11, 11</tspan><tspan
               style="font-size:10.51759148px"
               id="tspan4956"
               y="1056.4647"
               x="76.748543"
               sodipodi:role="line">12, 12</tspan></text>
        </g>
        <path
           inkscape:connector-curvature="0"
           style="fill:none;stroke:#070707;stroke-width:2;stroke-linecap:butt;stroke-linejoin:miter;stroke-miterlimit:4;stroke-opacity:1;stroke-dasharray:none;marker-end:url(#Arrow2Mend)"
           d="m 43.965088,1013.4118 1.186227,5.0113 5.888685,5.7614 6.141532,2.3979 5.89716,0.3734 4.778823,-1.507 4.590464,-2.1044"
           id="path6084" />
      </g>
    </g>
  </g>
</svg>
