<?xml version="1.0" encoding="UTF-8" standalone="no"?>
<!-- Created with Inkscape (http://www.inkscape.org/) -->

<svg
   xmlns:dc="http://purl.org/dc/elements/1.1/"
   xmlns:cc="http://creativecommons.org/ns#"
   xmlns:rdf="http://www.w3.org/1999/02/22-rdf-syntax-ns#"
   xmlns:svg="http://www.w3.org/2000/svg"
   xmlns="http://www.w3.org/2000/svg"
   xmlns:sodipodi="http://sodipodi.sourceforge.net/DTD/sodipodi-0.dtd"
   xmlns:inkscape="http://www.inkscape.org/namespaces/inkscape"
   version="1.2"
   width="350"
   height="200"
   id="svg2"
   inkscape:version="0.48.1 r9760"
   sodipodi:docname="xyaxes.png">
  <sodipodi:namedview
     pagecolor="#ffffff"
     bordercolor="#666666"
     borderopacity="1"
     objecttolerance="10"
     gridtolerance="10"
     guidetolerance="10"
     inkscape:pageopacity="0"
     inkscape:pageshadow="2"
     inkscape:window-width="1280"
     inkscape:window-height="950"
     id="namedview135"
     showgrid="false"
     inkscape:zoom="1.455"
     inkscape:cx="59.536082"
     inkscape:cy="24.159325"
     inkscape:window-x="0"
     inkscape:window-y="24"
     inkscape:window-maximized="1"
     inkscape:current-layer="layer1" />
  <metadata
     id="metadata137">
    <rdf:RDF>
      <cc:Work
         rdf:about="">
        <dc:format>image/svg+xml</dc:format>
        <dc:type
           rdf:resource="http://purl.org/dc/dcmitype/StillImage" />
        <dc:title></dc:title>
      </cc:Work>
    </rdf:RDF>
  </metadata>
  <defs
     id="defs4">
    <marker
       refX="0"
       refY="0"
       orient="auto"
       id="EmptyTriangleInL"
       style="overflow:visible">
      <path
         d="m 5.77,0 -8.65,5 0,-10 8.65,5 z"
         transform="matrix(-0.8,0,0,-0.8,4.8,0)"
         id="path4222"
         style="fill:#ffffff;fill-rule:evenodd;stroke:#000000;stroke-width:1pt;marker-start:none" />
    </marker>
    <marker
       refX="0"
       refY="0"
       orient="auto"
       id="EmptyTriangleOutM"
       style="overflow:visible">
      <path
         d="m 5.77,0 -8.65,5 0,-10 8.65,5 z"
         transform="matrix(0.4,0,0,0.4,-1.8,0)"
         id="path4234"
         style="fill:#ffffff;fill-rule:evenodd;stroke:#000000;stroke-width:1pt;marker-start:none" />
    </marker>
    <marker
       refX="0"
       refY="0"
       orient="auto"
       id="Arrow1Mend"
       style="overflow:visible">
      <path
         d="M 0,0 5,-5 -12.5,0 5,5 0,0 z"
         transform="matrix(-0.4,0,0,-0.4,-4,0)"
         id="path4079"
         style="fill-rule:evenodd;stroke:#000000;stroke-width:1pt;marker-start:none" />
    </marker>
    <marker
       refX="0"
       refY="0"
       orient="auto"
       id="Arrow2Lstart"
       style="overflow:visible">
      <path
         d="M 8.7185878,4.0337352 -2.2072895,0.01601326 8.7185884,-4.0017078 c -1.7454984,2.3720609 -1.7354408,5.6174519 -6e-7,8.035443 z"
         transform="matrix(1.1,0,0,1.1,1.1,0)"
         id="path4088"
         style="font-size:12px;fill-rule:evenodd;stroke-width:0.625;stroke-linejoin:round" />
    </marker>
    <marker
       refX="0"
       refY="0"
       orient="auto"
       id="Arrow1Lstart"
       style="overflow:visible">
      <path
         d="M 0,0 5,-5 -12.5,0 5,5 0,0 z"
         transform="matrix(0.8,0,0,0.8,10,0)"
         id="path4070"
         style="fill-rule:evenodd;stroke:#000000;stroke-width:1pt;marker-start:none" />
    </marker>
    <marker
       refX="0"
       refY="0"
       orient="auto"
       id="Arrow1Send"
       style="overflow:visible">
      <path
         d="M 0,0 5,-5 -12.5,0 5,5 0,0 z"
         transform="matrix(-0.2,0,0,-0.2,-1.2,0)"
         id="path4085"
         style="fill-rule:evenodd;stroke:#000000;stroke-width:1pt;marker-start:none" />
    </marker>
  </defs>
  <g
     transform="translate(3.4364261,-853.04947)"
     id="layer1">
    <g
       transform="matrix(0.42366694,0,0,0.30311964,47.65239,866.74705)"
       id="g2822"
       style="opacity:0.52863436">
      <g
         id="g2824">
        <path
           d="m 100,0 0,500"
           id="path2826"
           style="fill:none;stroke:#000000;stroke-width:2"
           inkscape:connector-curvature="0" />
        <path
           d="m 200,0 0,500"
           id="path2828"
           style="fill:none;stroke:#000000;stroke-width:2"
           inkscape:connector-curvature="0" />
        <path
           d="m 300,0 0,500"
           id="path2830"
           style="fill:none;stroke:#000000;stroke-width:2"
           inkscape:connector-curvature="0" />
        <path
           d="m 400,0 0,500"
           id="path2832"
           style="fill:none;stroke:#000000;stroke-width:2"
           inkscape:connector-curvature="0" />
        <path
           d="m 500,0 0,500"
           id="path2834"
           style="fill:none;stroke:#000000;stroke-width:2"
           inkscape:connector-curvature="0" />
      </g>
      <g
         id="g2836">
        <path
           d="m 0,100 600,0"
           id="path2838"
           style="fill:none;stroke:#000000;stroke-width:2"
           inkscape:connector-curvature="0" />
        <path
           d="m 0,200 600,0"
           id="path2840"
           style="fill:none;stroke:#000000;stroke-width:2"
           inkscape:connector-curvature="0" />
        <path
           d="m 0,300 600,0"
           id="path2842"
           style="fill:none;stroke:#000000;stroke-width:2"
           inkscape:connector-curvature="0" />
        <path
           d="m 0,400 600,0"
           id="path2844"
           style="fill:none;stroke:#000000;stroke-width:2"
           inkscape:connector-curvature="0" />
      </g>
      <g
         id="g2846">
        <path
           d="m 50,0 0,500"
           id="path2848"
           style="fill:none;stroke:#000000;stroke-width:1"
           inkscape:connector-curvature="0" />
        <path
           d="m 150,0 0,500"
           id="path2850"
           style="fill:none;stroke:#000000;stroke-width:1"
           inkscape:connector-curvature="0" />
        <path
           d="m 250,0 0,500"
           id="path2852"
           style="fill:none;stroke:#000000;stroke-width:1"
           inkscape:connector-curvature="0" />
        <path
           d="m 350,0 0,500"
           id="path2854"
           style="fill:none;stroke:#000000;stroke-width:1"
           inkscape:connector-curvature="0" />
        <path
           d="m 450,0 0,500"
           id="path2856"
           style="fill:none;stroke:#000000;stroke-width:1"
           inkscape:connector-curvature="0" />
        <path
           d="m 550,0 0,500"
           id="path2858"
           style="fill:none;stroke:#000000;stroke-width:1"
           inkscape:connector-curvature="0" />
      </g>
      <g
         id="g2860">
        <path
           d="m 10,0 0,500"
           id="path2862"
           style="fill:none;stroke:#000000;stroke-width:0.30000000999999998"
           inkscape:connector-curvature="0" />
        <path
           d="m 20,0 0,500"
           id="path2864"
           style="fill:none;stroke:#000000;stroke-width:0.30000000999999998"
           inkscape:connector-curvature="0" />
        <path
           d="m 30,0 0,500"
           id="path2866"
           style="fill:none;stroke:#000000;stroke-width:0.30000000999999998"
           inkscape:connector-curvature="0" />
        <path
           d="m 40,0 0,500"
           id="path2868"
           style="fill:none;stroke:#000000;stroke-width:0.30000000999999998"
           inkscape:connector-curvature="0" />
        <path
           d="m 60,0 0,500"
           id="path2870"
           style="fill:none;stroke:#000000;stroke-width:0.30000000999999998"
           inkscape:connector-curvature="0" />
        <path
           d="m 70,0 0,500"
           id="path2872"
           style="fill:none;stroke:#000000;stroke-width:0.30000000999999998"
           inkscape:connector-curvature="0" />
        <path
           d="m 80,0 0,500"
           id="path2874"
           style="fill:none;stroke:#000000;stroke-width:0.30000000999999998"
           inkscape:connector-curvature="0" />
        <path
           d="m 90,0 0,500"
           id="path2876"
           style="fill:none;stroke:#000000;stroke-width:0.30000000999999998"
           inkscape:connector-curvature="0" />
        <path
           d="m 110,0 0,500"
           id="path2878"
           style="fill:none;stroke:#000000;stroke-width:0.30000000999999998"
           inkscape:connector-curvature="0" />
        <path
           d="m 120,0 0,500"
           id="path2880"
           style="fill:none;stroke:#000000;stroke-width:0.30000000999999998"
           inkscape:connector-curvature="0" />
        <path
           d="m 130,0 0,500"
           id="path2882"
           style="fill:none;stroke:#000000;stroke-width:0.30000000999999998"
           inkscape:connector-curvature="0" />
        <path
           d="m 140,0 0,500"
           id="path2884"
           style="fill:none;stroke:#000000;stroke-width:0.30000000999999998"
           inkscape:connector-curvature="0" />
        <path
           d="m 160,0 0,500"
           id="path2886"
           style="fill:none;stroke:#000000;stroke-width:0.30000000999999998"
           inkscape:connector-curvature="0" />
        <path
           d="m 170,0 0,500"
           id="path2888"
           style="fill:none;stroke:#000000;stroke-width:0.30000000999999998"
           inkscape:connector-curvature="0" />
        <path
           d="m 180,0 0,500"
           id="path2890"
           style="fill:none;stroke:#000000;stroke-width:0.30000000999999998"
           inkscape:connector-curvature="0" />
        <path
           d="m 190,0 0,500"
           id="path2892"
           style="fill:none;stroke:#000000;stroke-width:0.30000000999999998"
           inkscape:connector-curvature="0" />
        <path
           d="m 210,0 0,500"
           id="path2894"
           style="fill:none;stroke:#000000;stroke-width:0.30000000999999998"
           inkscape:connector-curvature="0" />
        <path
           d="m 220,0 0,500"
           id="path2896"
           style="fill:none;stroke:#000000;stroke-width:0.30000000999999998"
           inkscape:connector-curvature="0" />
        <path
           d="m 230,0 0,500"
           id="path2898"
           style="fill:none;stroke:#000000;stroke-width:0.30000000999999998"
           inkscape:connector-curvature="0" />
        <path
           d="m 240,0 0,500"
           id="path2900"
           style="fill:none;stroke:#000000;stroke-width:0.30000000999999998"
           inkscape:connector-curvature="0" />
        <path
           d="m 260,0 0,500"
           id="path2902"
           style="fill:none;stroke:#000000;stroke-width:0.30000000999999998"
           inkscape:connector-curvature="0" />
        <path
           d="m 270,0 0,500"
           id="path2904"
           style="fill:none;stroke:#000000;stroke-width:0.30000000999999998"
           inkscape:connector-curvature="0" />
        <path
           d="m 280,0 0,500"
           id="path2906"
           style="fill:none;stroke:#000000;stroke-width:0.30000000999999998"
           inkscape:connector-curvature="0" />
        <path
           d="m 290,0 0,500"
           id="path2908"
           style="fill:none;stroke:#000000;stroke-width:0.30000000999999998"
           inkscape:connector-curvature="0" />
        <path
           d="m 310,0 0,500"
           id="path2910"
           style="fill:none;stroke:#000000;stroke-width:0.30000000999999998"
           inkscape:connector-curvature="0" />
        <path
           d="m 320,0 0,500"
           id="path2912"
           style="fill:none;stroke:#000000;stroke-width:0.30000000999999998"
           inkscape:connector-curvature="0" />
        <path
           d="m 330,0 0,500"
           id="path2914"
           style="fill:none;stroke:#000000;stroke-width:0.30000000999999998"
           inkscape:connector-curvature="0" />
        <path
           d="m 340,0 0,500"
           id="path2916"
           style="fill:none;stroke:#000000;stroke-width:0.30000000999999998"
           inkscape:connector-curvature="0" />
        <path
           d="m 360,0 0,500"
           id="path2918"
           style="fill:none;stroke:#000000;stroke-width:0.30000000999999998"
           inkscape:connector-curvature="0" />
        <path
           d="m 370,0 0,500"
           id="path2920"
           style="fill:none;stroke:#000000;stroke-width:0.30000000999999998"
           inkscape:connector-curvature="0" />
        <path
           d="m 380,0 0,500"
           id="path2922"
           style="fill:none;stroke:#000000;stroke-width:0.30000000999999998"
           inkscape:connector-curvature="0" />
        <path
           d="m 390,0 0,500"
           id="path2924"
           style="fill:none;stroke:#000000;stroke-width:0.30000000999999998"
           inkscape:connector-curvature="0" />
        <path
           d="m 410,0 0,500"
           id="path2926"
           style="fill:none;stroke:#000000;stroke-width:0.30000000999999998"
           inkscape:connector-curvature="0" />
        <path
           d="m 420,0 0,500"
           id="path2928"
           style="fill:none;stroke:#000000;stroke-width:0.30000000999999998"
           inkscape:connector-curvature="0" />
        <path
           d="m 430,0 0,500"
           id="path2930"
           style="fill:none;stroke:#000000;stroke-width:0.30000000999999998"
           inkscape:connector-curvature="0" />
        <path
           d="m 440,0 0,500"
           id="path2932"
           style="fill:none;stroke:#000000;stroke-width:0.30000000999999998"
           inkscape:connector-curvature="0" />
        <path
           d="m 460,0 0,500"
           id="path2934"
           style="fill:none;stroke:#000000;stroke-width:0.30000000999999998"
           inkscape:connector-curvature="0" />
        <path
           d="m 470,0 0,500"
           id="path2936"
           style="fill:none;stroke:#000000;stroke-width:0.30000000999999998"
           inkscape:connector-curvature="0" />
        <path
           d="m 480,0 0,500"
           id="path2938"
           style="fill:none;stroke:#000000;stroke-width:0.30000000999999998"
           inkscape:connector-curvature="0" />
        <path
           d="m 490,0 0,500"
           id="path2940"
           style="fill:none;stroke:#000000;stroke-width:0.30000000999999998"
           inkscape:connector-curvature="0" />
        <path
           d="m 510,0 0,500"
           id="path2942"
           style="fill:none;stroke:#000000;stroke-width:0.30000000999999998"
           inkscape:connector-curvature="0" />
        <path
           d="m 520,0 0,500"
           id="path2944"
           style="fill:none;stroke:#000000;stroke-width:0.30000000999999998"
           inkscape:connector-curvature="0" />
        <path
           d="m 530,0 0,500"
           id="path2946"
           style="fill:none;stroke:#000000;stroke-width:0.30000000999999998"
           inkscape:connector-curvature="0" />
        <path
           d="m 540,0 0,500"
           id="path2948"
           style="fill:none;stroke:#000000;stroke-width:0.30000000999999998"
           inkscape:connector-curvature="0" />
        <path
           d="m 560,0 0,500"
           id="path2950"
           style="fill:none;stroke:#000000;stroke-width:0.30000000999999998"
           inkscape:connector-curvature="0" />
        <path
           d="m 570,0 0,500"
           id="path2952"
           style="fill:none;stroke:#000000;stroke-width:0.30000000999999998"
           inkscape:connector-curvature="0" />
        <path
           d="m 580,0 0,500"
           id="path2954"
           style="fill:none;stroke:#000000;stroke-width:0.30000000999999998"
           inkscape:connector-curvature="0" />
        <path
           d="m 590,0 0,500"
           id="path2956"
           style="fill:none;stroke:#000000;stroke-width:0.30000000999999998"
           inkscape:connector-curvature="0" />
      </g>
      <g
         id="g2958">
        <path
           d="m 0,20 600,0"
           id="path2960"
           style="fill:none;stroke:#000000;stroke-width:0.30000000999999998"
           inkscape:connector-curvature="0" />
        <path
           d="m 0,40 600,0"
           id="path2962"
           style="fill:none;stroke:#000000;stroke-width:0.30000000999999998"
           inkscape:connector-curvature="0" />
        <path
           d="m 0,60 600,0"
           id="path2964"
           style="fill:none;stroke:#000000;stroke-width:0.30000000999999998"
           inkscape:connector-curvature="0" />
        <path
           d="m 0,80 600,0"
           id="path2966"
           style="fill:none;stroke:#000000;stroke-width:0.30000000999999998"
           inkscape:connector-curvature="0" />
        <path
           d="m 0,120 600,0"
           id="path2968"
           style="fill:none;stroke:#000000;stroke-width:0.30000000999999998"
           inkscape:connector-curvature="0" />
        <path
           d="m 0,140 600,0"
           id="path2970"
           style="fill:none;stroke:#000000;stroke-width:0.30000000999999998"
           inkscape:connector-curvature="0" />
        <path
           d="m 0,160 600,0"
           id="path2972"
           style="fill:none;stroke:#000000;stroke-width:0.30000000999999998"
           inkscape:connector-curvature="0" />
        <path
           d="m 0,180 600,0"
           id="path2974"
           style="fill:none;stroke:#000000;stroke-width:0.30000000999999998"
           inkscape:connector-curvature="0" />
        <path
           d="m 0,220 600,0"
           id="path2976"
           style="fill:none;stroke:#000000;stroke-width:0.30000000999999998"
           inkscape:connector-curvature="0" />
        <path
           d="m 0,240 600,0"
           id="path2978"
           style="fill:none;stroke:#000000;stroke-width:0.30000000999999998"
           inkscape:connector-curvature="0" />
        <path
           d="m 0,260 600,0"
           id="path2980"
           style="fill:none;stroke:#000000;stroke-width:0.30000000999999998"
           inkscape:connector-curvature="0" />
        <path
           d="m 0,280 600,0"
           id="path2982"
           style="fill:none;stroke:#000000;stroke-width:0.30000000999999998"
           inkscape:connector-curvature="0" />
        <path
           d="m 0,320 600,0"
           id="path2984"
           style="fill:none;stroke:#000000;stroke-width:0.30000000999999998"
           inkscape:connector-curvature="0" />
        <path
           d="m 0,340 600,0"
           id="path2986"
           style="fill:none;stroke:#000000;stroke-width:0.30000000999999998"
           inkscape:connector-curvature="0" />
        <path
           d="m 0,360 600,0"
           id="path2988"
           style="fill:none;stroke:#000000;stroke-width:0.30000000999999998"
           inkscape:connector-curvature="0" />
        <path
           d="m 0,380 600,0"
           id="path2990"
           style="fill:none;stroke:#000000;stroke-width:0.30000000999999998"
           inkscape:connector-curvature="0" />
        <path
           d="m 0,420 600,0"
           id="path2992"
           style="fill:none;stroke:#000000;stroke-width:0.30000000999999998"
           inkscape:connector-curvature="0" />
        <path
           d="m 0,440 600,0"
           id="path2994"
           style="fill:none;stroke:#000000;stroke-width:0.30000000999999998"
           inkscape:connector-curvature="0" />
        <path
           d="m 0,460 600,0"
           id="path2996"
           style="fill:none;stroke:#000000;stroke-width:0.30000000999999998"
           inkscape:connector-curvature="0" />
        <path
           d="m 0,480 600,0"
           id="path2998"
           style="fill:none;stroke:#000000;stroke-width:0.30000000999999998"
           inkscape:connector-curvature="0" />
      </g>
      <rect
         width="600"
         height="500"
         x="0"
         y="0"
         id="rect3000"
         style="fill:none;stroke:#000000;stroke-width:3" />
    </g>
    <path
       d="m 96.077032,1019.5783 a 5.9405945,5.445545 0 0 1 -11.881189,0 5.9405945,5.445545 0 1 1 11.881189,0 z"
       id="path3096"
       style="fill:#ff0000;fill-rule:evenodd;stroke:#000000;stroke-width:1px;stroke-linecap:butt;stroke-linejoin:miter;stroke-opacity:1"
       inkscape:connector-curvature="0" />
    <path
       d="m 266.60542,1018.7192 a 5.9405945,5.445545 0 0 1 -11.88119,0 5.9405945,5.445545 0 1 1 11.88119,0 z"
       id="path3096-7"
       style="fill:#ff0000;fill-rule:evenodd;stroke:#000000;stroke-width:1px;stroke-linecap:butt;stroke-linejoin:miter;stroke-opacity:1"
       inkscape:connector-curvature="0" />
    <path
       d="m 53.404106,988.39702 a 5.9405945,5.445545 0 0 1 -11.881189,0 5.9405945,5.445545 0 1 1 11.881189,0 z"
       id="path3096-2"
       style="fill:#ff0000;fill-rule:evenodd;stroke:#000000;stroke-width:1px;stroke-linecap:butt;stroke-linejoin:miter;stroke-opacity:1"
       inkscape:connector-curvature="0" />
    <path
       d="m 53.019626,896.74652 a 5.9405945,5.445545 0 0 1 -11.881189,0 5.9405945,5.445545 0 1 1 11.881189,0 z"
       id="path3096-3"
       style="fill:#ff0000;fill-rule:evenodd;stroke:#000000;stroke-width:1px;stroke-linecap:butt;stroke-linejoin:miter;stroke-opacity:1"
       inkscape:connector-curvature="0" />
    <flowRoot
       transform="translate(88.55432,859.09554)"
       id="flowRoot3138"
       xml:space="preserve"
       style="font-size:22px;font-style:normal;font-weight:normal;fill:#ff0000;fill-opacity:1;stroke:none;font-family:Bitstream Vera Sans"><flowRegion
         id="flowRegion3140"><rect
           width="23.762377"
           height="36.633663"
           x="9.9009905"
           y="160.39604"
           id="rect3142"
           style="font-size:22px;fill:#ff0000" /></flowRegion><flowPara
         id="flowPara3144">1</flowPara></flowRoot>    <flowRoot
       transform="translate(260.19082,859.44216)"
       id="flowRoot3138-4"
       xml:space="preserve"
       style="font-size:22px;font-style:normal;font-weight:normal;fill:#ff0000;fill-opacity:1;stroke:none;font-family:Bitstream Vera Sans"><flowRegion
         id="flowRegion3140-6"><rect
           width="23.762377"
           height="36.633663"
           x="9.9009905"
           y="160.39604"
           id="rect3142-7"
           style="font-size:22px;fill:#ff0000" /></flowRegion><flowPara
         id="flowPara3144-6">2</flowPara></flowRoot>    <flowRoot
       transform="translate(16.874842,800.49894)"
       id="flowRoot3138-5"
       xml:space="preserve"
       style="font-size:22px;font-style:normal;font-weight:normal;fill:#ff0000;fill-opacity:1;stroke:none;font-family:Bitstream Vera Sans"><flowRegion
         id="flowRegion3140-9"><rect
           width="23.762377"
           height="36.633663"
           x="9.9009905"
           y="160.39604"
           id="rect3142-78"
           style="font-size:22px;fill:#ff0000" /></flowRegion><flowPara
         id="flowPara3144-5">3</flowPara></flowRoot>    <flowRoot
       transform="translate(14.428516,707.14725)"
       id="flowRoot3138-7"
       xml:space="preserve"
       style="font-size:22px;font-style:normal;font-weight:normal;fill:#ff0000;fill-opacity:1;stroke:none;font-family:Bitstream Vera Sans"><flowRegion
         id="flowRegion3140-4"><rect
           width="23.762377"
           height="36.633663"
           x="9.9009905"
           y="160.39604"
           id="rect3142-1"
           style="font-size:22px;fill:#ff0000" /></flowRegion><flowPara
         id="flowPara3144-9">4</flowPara></flowRoot>    <path
       d="m 59.405941,155.44554 c 0,-3.96039 -0.330033,1.65017 0.990099,-0.99009 0.420561,-0.84113 -0.356184,-4.87205 0,-5.9406 0.147595,-0.44278 0.781367,-0.57264 0.990099,-0.9901 0.396039,-0.79208 -0.39604,-2.17822 0,-2.97029 0.208731,-0.41747 0.781367,-0.57264 0.990099,-0.9901 0.196283,-0.39257 -0.202413,-2.76789 0,-2.9703 0.233368,-0.23337 0.75673,0.23337 0.990099,0 0.495049,-0.49505 -0.49505,-2.47525 0,-2.9703 0.233368,-0.23337 0.75673,0.23337 0.990099,0 0.202412,-0.20241 -0.196283,-2.57773 0,-2.97029 0.208731,-0.41747 0.781367,-0.57264 0.990099,-0.9901 0.29519,-0.59038 -0.466737,-1.51346 0,-1.9802 0.233368,-0.23337 0.75673,0.23337 0.990099,0 0.233368,-0.23337 -0.147596,-0.69491 0,-0.9901 0.208731,-0.41746 0.781367,-0.57264 0.990099,-0.9901 0.29519,-0.59038 -0.466737,-1.51346 0,-1.9802 0.233368,-0.23337 0.75673,0.23337 0.990099,0 0.233368,-0.23337 -0.233369,-0.75673 0,-0.9901 0.233368,-0.23337 0.75673,0.23337 0.990099,0 0.233368,-0.23337 -0.233369,-0.75673 0,-0.9901 0.233368,-0.23336 0.75673,0.23337 0.990099,0 0.233368,-0.23336 -0.233369,-0.75673 0,-0.99009 0.233368,-0.23337 0.75673,0.23336 0.990099,0 0.233368,-0.23337 -0.233369,-0.75674 0,-0.9901 0.233368,-0.23337 0.75673,0.23336 0.990099,0 0.233368,-0.23337 -0.233369,-0.75673 0,-0.9901 0.233368,-0.23337 0.694908,0.14759 0.990099,0 0.417462,-0.20873 0.572636,-0.78137 0.990099,-0.9901 0.29519,-0.1476 0.694908,0.14759 0.990099,0 0.417462,-0.20873 0.572636,-0.78137 0.990099,-0.9901 0.29519,-0.1476 0.75673,0.23337 0.990099,0 0.233368,-0.23337 -0.233369,-0.75673 0,-0.9901 0.306581,-0.30658 4.643914,0.30658 4.950495,0 0.233368,-0.23337 -0.233369,-0.75673 0,-0.9901 0.233368,-0.23337 0.660066,0 0.990099,0 0.330033,0 0.660066,0 0.990099,0 2.640264,0 5.280528,0 7.920792,0 7.590759,0 15.181522,0 22.772282,0 2.31023,0 4.62046,0 6.93069,0 0.4459,0 2.66897,0.15066 2.9703,0 0.41746,-0.20873 0.57263,-0.78137 0.99009,-0.9901 0.59039,-0.29519 1.38982,0.29519 1.9802,0 0.41746,-0.20873 0.57264,-0.78137 0.9901,-0.9901 0.29519,-0.14759 0.75673,0.23337 0.9901,0 0.23337,-0.23337 -0.23337,-0.75673 0,-0.9901 0.23337,-0.23336 0.69491,0.1476 0.9901,0 0.41746,-0.20873 0.54731,-0.8425 0.9901,-0.99009 0.62619,-0.20874 1.354,0.20873 1.9802,0 0.44278,-0.1476 0.57263,-0.78137 0.9901,-0.9901 0.29519,-0.1476 0.6949,0.14759 0.99009,0 0.83493,-0.41747 1.14528,-1.56274 1.9802,-1.9802 2.43857,-1.21928 -0.89379,2.87399 2.9703,-0.9901 0.23337,-0.23337 -0.1476,-0.69491 0,-0.9901 0.20873,-0.41746 0.66007,-0.66007 0.9901,-0.9901 0.33003,-0.33003 0.57264,-0.78137 0.9901,-0.9901 0.29519,-0.14759 0.69491,0.1476 0.9901,0 0.26288,-0.13144 2.83885,-2.70741 2.97029,-2.97029 0.1476,-0.2952 -0.23337,-0.75674 0,-0.9901 0.23337,-0.23337 0.75673,0.23336 0.9901,0 0.23337,-0.23337 -0.23337,-0.75673 0,-0.9901 0.23337,-0.23337 0.75673,0.23337 0.9901,0 0.23337,-0.23337 -0.23337,-0.75673 0,-0.9901 0.23337,-0.23337 0.75673,0.23337 0.9901,0 0.46674,-0.46674 -0.46674,-1.51346 0,-1.9802 0.23337,-0.233369 0.75673,0.23337 0.9901,0 0.46674,-0.466737 -0.46674,-1.513461 0,-1.980198 0.23337,-0.233369 0.75673,0.233369 0.9901,0 0.23337,-0.233369 -0.1476,-0.694909 0,-0.990099 0.20873,-0.417462 0.78137,-0.572637 0.9901,-0.990099 0.29519,-0.590381 -0.46674,-1.513461 0,-1.980198 0.23337,-0.233369 0.75673,0.233369 0.9901,0 0.46673,-0.466737 -0.46674,-1.513461 0,-1.980198 0.23337,-0.233369 0.75673,0.233368 0.9901,0 0.46673,-0.466737 -0.29519,-1.389817 0,-1.980198 0.20873,-0.417462 0.78136,-0.572637 0.99009,-0.990099 0.2952,-0.590381 -0.29519,-1.389817 0,-1.980198 0.20874,-0.417463 0.78137,-0.572637 0.9901,-0.990099 0.1476,-0.295191 -0.23337,-0.756731 0,-0.990099 0.23337,-0.233369 0.75673,0.233368 0.9901,0 0.49505,-0.49505 -0.49505,-2.475248 0,-2.970297 0.23337,-0.233369 0.75673,0.233368 0.9901,0 0.49505,-0.49505 -0.49505,-2.475248 0,-2.970297 0.23337,-0.233369 0.75673,0.233368 0.9901,0 0.49505,-0.49505 -0.49505,-2.475248 0,-2.970297 0.23337,-0.233369 0.75673,0.233368 0.9901,0 0.32812,-0.328125 -0.32813,-1.652073 0,-1.980198 0.23337,-0.233369 0.75673,0.233368 0.9901,0 0.46674,-0.466737 -0.46674,-1.513461 0,-1.980198 0.23337,-0.233369 0.75673,0.233368 0.9901,0 0.23337,-0.233369 -0.23337,-0.756731 0,-0.990099 0.23337,-0.233369 0.75673,0.233368 0.9901,0 0.33195,-0.331952 -0.33195,-1.648247 0,-1.980198 0.23337,-0.233369 0.75673,0.233368 0.9901,0 0,-2.640264 -0.33004,0.330033 0.99009,-0.990099 0.23337,-0.233369 -0.23336,-0.756731 0,-0.990099 0.23337,-0.233369 0.75674,0.233368 0.9901,0 0.23337,-0.233369 -0.23336,-0.756731 0,-0.990099 0.23337,-0.233369 0.75673,0.233368 0.9901,0 0.23337,-0.233369 -0.23337,-0.756731 0,-0.990099 0.23337,-0.233369 0.75673,0.233368 0.9901,0 0.23337,-0.233369 -0.23337,-0.756731 0,-0.990099 0.23337,-0.233369 0.75673,0.233368 0.9901,0 0.23337,-0.233369 -0.23337,-0.756731 0,-0.990099 0.46674,-0.466738 1.51346,0.466737 1.9802,0 0.23337,-0.233369 -0.23337,-0.756731 0,-0.990099 0.32909,-0.329095 1.6511,0.329094 1.9802,0 0.23337,-0.233369 -0.23337,-0.756731 0,-0.990099 0.20241,-0.202413 2.57773,0.196283 2.97029,0 0.41747,-0.208732 0.57264,-0.781368 0.9901,-0.990099 0.60121,-0.300606 5.33939,0.300605 5.9406,0 0.41746,-0.208732 0.54731,-0.842504 0.9901,-0.990099 0.56323,-0.187744 4.01798,0 4.95049,0 3.9604,0 7.92079,0 11.88119,0 2.64026,0 5.28053,0 7.92079,0 0.51774,0 3.70006,-0.130169 3.9604,0 0.41746,0.208731 0.57263,0.781367 0.9901,0.990099 0.26033,0.130169 3.44265,0 3.96039,0 0.68866,0 4.59244,0.179026 4.9505,0 0.41746,-0.208732 0.57263,-0.781368 0.9901,-0.990099 0.39256,-0.196284 2.76788,0.202412 2.97029,0 0.23337,-0.233369 -0.23337,-0.756731 0,-0.990099 0.46674,-0.466738 1.51346,0.466737 1.9802,0 0.23337,-0.233369 -0.23337,-0.756731 0,-0.990099 0.33423,-0.334226 1.64597,0.334225 1.9802,0 0.23337,-0.233369 -0.23337,-0.756731 0,-0.990099 0.46674,-0.466738 1.51346,0.466737 1.9802,0 0.23337,-0.233369 -0.23337,-0.756731 0,-0.990099 0.32909,-0.329095 1.6511,0.329094 1.9802,0 0.23336,-0.233369 -0.23337,-0.756731 0,-0.990099 0.23336,-0.233369 0.75673,0.233368 0.99009,0 0.23337,-0.233369 -0.23336,-0.756731 0,-0.990099 0.23337,-0.233369 0.75673,0.233368 0.9901,0 0.23337,-0.233369 -0.23337,-0.756731 0,-0.990099 0.23337,-0.233369 0.75673,0.233368 0.9901,0 0.23337,-0.233369 -0.23337,-0.756731 0,-0.990099 0.23337,-0.233369 0.75673,0.233368 0.9901,0 0.23337,-0.233369 -0.23337,-0.756731 0,-0.990099 0.23337,-0.233369 0.75673,0.233368 0.9901,0 0.32877,-0.328772 -0.32877,-1.651427 0,-1.980199 0.23337,-0.233368 0.75673,0.233369 0.9901,0 0.23337,-0.233368 -0.23337,-0.75673 0,-0.990099 0.23337,-0.233368 0.75673,0.233369 0.9901,0 0.23337,-0.233368 -0.23337,-0.75673 0,-0.990099 0.23337,-0.233368 0.75673,0.233369 0.9901,0 0.46673,-0.466737 -0.46674,-1.51346 0,-1.980198 0.23337,-0.233368 0.75673,0.233369 0.9901,0 0.33195,-0.331951 -0.33196,-1.648246 0,-1.980198 0.23337,-0.233368 0.75673,0.233369 0.9901,0 0,-2.640264 -0.33004,0.330033 0.99009,-0.990099 0.46674,-0.466737 -0.46673,-1.51346 0,-1.980198 0.23337,-0.233368 0.75673,0.233369 0.9901,0 0.23337,-0.233368 -0.14759,-0.694908 0,-0.990099 0.20873,-0.417462 0.78137,-0.572636 0.9901,-0.990099 0.29519,-0.590381 -0.46673,-1.51346 0,-1.980198 0.23337,-0.233368 0.75673,0.233369 0.9901,0 0.46674,-0.466737 -0.46674,-1.513461 0,-1.980198 0.23337,-0.233368 0.75673,0.233369 0.9901,0 0.23337,-0.233368 -0.23337,-0.75673 0,-0.990099 0.23337,-0.233368 0.75673,0.233369 0.9901,0 0.46674,-0.466737 -0.46674,-1.513461 0,-1.980198 0.23337,-0.233368 0.75673,0.233369 0.9901,0 0.23337,-0.233368 -0.23337,-0.75673 0,-0.990099 0.23337,-0.233368 0.75673,0.233369 0.9901,0 0.23337,-0.233368 -0.23337,-0.75673 0,-0.990099 0.46673,-0.466737 1.51346,0.466737 1.9802,0 0.23336,-0.233368 -0.23337,-0.75673 0,-0.990099 0.46673,-0.466737 1.51346,0.466737 1.98019,0 0.23337,-0.233368 -0.23337,-0.75673 0,-0.990099 0.46674,-0.466737 1.51346,0.466737 1.9802,0 0.23337,-0.233368 -0.23337,-0.75673 0,-0.990099 0.49505,-0.495049 2.47525,0.49505 2.9703,0 0.23337,-0.233368 -0.23337,-0.75673 0,-0.990099 0.0318,-0.03184 2.73017,0 2.9703,0"
       transform="translate(0,852.36218)"
       id="path3232"
       style="fill:none;stroke:#000000;stroke-width:1.9;stroke-linecap:butt;stroke-linejoin:miter;stroke-opacity:1;stroke-miterlimit:4;stroke-dasharray:none"
       inkscape:connector-curvature="0" />
    <text
       x="167.32674"
       y="1038.5007"
       id="text3234"
       xml:space="preserve"
       style="font-size:18px;font-style:normal;font-weight:normal;fill:#000000;fill-opacity:1;stroke:none;font-family:Bitstream Vera Sans"><tspan
         x="167.32674"
         y="1038.5007"
         id="tspan3236">X</tspan></text>
    <text
       x="23.550627"
       y="947.04205"
       id="text3234-4"
       xml:space="preserve"
       style="font-size:18px;font-style:normal;font-weight:normal;fill:#000000;fill-opacity:1;stroke:none;font-family:Bitstream Vera Sans"><tspan
         x="23.550627"
         y="947.04205"
         id="tspan3236-7">Y</tspan></text>
    <g
       transform="matrix(1.1166253,0,0,1.2659754,-23.069341,853.83119)"
       id="g3281">
      <g
         style="font-style:normal;font-variant:normal;font-weight:normal;font-stretch:normal;letter-spacing:normal;word-spacing:normal;text-anchor:start;fill:none;stroke:#000000;stroke-linecap:butt;stroke-linejoin:miter;stroke-miterlimit:10.43299961;stroke-opacity:1;stroke-dasharray:none;stroke-dashoffset:0"
         id="content"
         transform="matrix(0.28571429,0,0,-0.28571429,-50,262.5)"
         xml:space="preserve"
         stroke-miterlimit="10.433"
         font-style="normal"
         font-variant="normal"
         font-weight="normal"
         font-stretch="normal"
         font-size-adjust="none"
         letter-spacing="normal"
         word-spacing="normal"><path
           style="fill:#000000;stroke-width:0"
           inkscape:connector-curvature="0"
           d="m 479.68,426.68 -4.18,9.91 c -0.15,0.41 -0.25,0.59 -0.25,0.64 0,0.31 0.85,1.25 2.94,1.45 0.5,0.05 1,0.1 1,0.96 0,0.59 -0.61,0.59 -0.75,0.59 -2.05,0 -4.19,-0.16 -6.28,-0.16 -1.25,0 -4.33,0.16 -5.58,0.16 -0.29,0 -0.9,0 -0.9,-1 0,-0.55 0.5,-0.55 1.15,-0.55 2.99,0 3.28,-0.5 3.74,-1.59 l 5.87,-13.91 -10.51,-11.31 -0.64,-0.55 c -2.44,-2.64 -4.79,-3.43 -7.33,-3.57 -0.64,-0.05 -1.1,-0.05 -1.1,-1 0,-0.05 0,-0.55 0.66,-0.55 1.48,0 3.12,0.16 4.67,0.16 1.85,0 3.8,-0.16 5.58,-0.16 0.31,0 0.91,0 0.91,1 0,0.5 -0.5,0.55 -0.6,0.55 -0.45,0.04 -2,0.14 -2,1.54 0,0.8 0.75,1.6 1.35,2.24 l 5.07,5.39 4.49,4.87 5.03,-11.9 c 0.2,-0.55 0.25,-0.6 0.25,-0.71 0,-0.39 -0.94,-1.23 -2.89,-1.43 -0.55,-0.05 -0.99,-0.11 -0.99,-0.96 0,-0.59 0.55,-0.59 0.74,-0.59 1.41,0 4.89,0.16 6.28,0.16 1.25,0 4.28,-0.16 5.53,-0.16 0.35,0 0.95,0 0.95,0.95 0,0.6 -0.5,0.6 -0.9,0.6 -3.33,0.04 -3.44,0.2 -4.28,2.18 -1.94,4.64 -5.28,12.41 -6.42,15.39 3.39,3.5 8.6,9.43 10.2,10.82 1.45,1.2 3.34,2.39 6.33,2.54 0.65,0.05 1.09,0.05 1.09,1 0,0.05 0,0.55 -0.64,0.55 -1.5,0 -3.14,-0.16 -4.69,-0.16 -1.84,0 -3.73,0.16 -5.53,0.16 -0.3,0 -0.94,0 -0.94,-1 0,-0.34 0.25,-0.5 0.6,-0.55 0.45,-0.04 2,-0.15 2,-1.54 0,-0.71 -0.55,-1.35 -0.96,-1.8 z"
           id="path3284" /><path
           style="fill:#000000;stroke-width:0"
           inkscape:connector-curvature="0"
           d="m 508.47,420.92 0,0.04 0,0.04 0,0.05 0,0.04 0,0.03 0,0.04 0,0.04 0,0.03 0,0.04 0,0.03 -0.01,0.03 0,0.03 0,0.03 -0.01,0.03 0,0.03 0,0.02 -0.01,0.03 0,0.02 -0.01,0.03 0,0.02 -0.01,0.04 -0.02,0.04 -0.02,0.03 -0.02,0.03 -0.02,0.03 -0.02,0.03 -0.03,0.02 -0.03,0.02 -0.03,0.02 -0.04,0.01 -0.04,0.01 -0.05,0.02 -0.02,0 -0.02,0 -0.03,0.01 -0.03,0 -0.02,0.01 -0.03,0 -0.03,0 -0.03,0 -0.03,0 -0.04,0.01 -0.03,0 -0.04,0 -0.03,0 -0.04,0 -0.04,0 -0.04,0 -0.04,0 -0.04,0 -0.05,0 -0.04,0 c -2.24,-2.2 -5.39,-2.23 -6.83,-2.23 v -1.25 c 0.84,0 3.14,0 5.04,0.97 v -17.77 c 0,-1.16 0,-1.61 -3.48,-1.61 h -1.31 v -1.25 c 0.62,0.03 4.9,0.14 6.2,0.14 1.08,0 5.47,-0.11 6.23,-0.14 v 1.25 h -1.32 c -3.49,0 -3.49,0.45 -3.49,1.61 z"
           id="path3286" /></g>    </g>
    <g
       transform="matrix(1.0948905,0,0,1.2659754,150.84401,854.89648)"
       id="g3585">
      <g
         style="font-style:normal;font-variant:normal;font-weight:normal;font-stretch:normal;letter-spacing:normal;word-spacing:normal;text-anchor:start;fill:none;stroke:#000000;stroke-linecap:butt;stroke-linejoin:miter;stroke-miterlimit:10.43299961;stroke-opacity:1;stroke-dasharray:none;stroke-dashoffset:0"
         word-spacing="normal"
         letter-spacing="normal"
         font-size-adjust="none"
         font-stretch="normal"
         font-weight="normal"
         font-variant="normal"
         font-style="normal"
         stroke-miterlimit="10.433"
         xml:space="preserve"
         transform="matrix(0.28571429,0,0,-0.28571429,-50,262.5)"
         id="g3587"><path
           style="fill:#000000;stroke-width:0"
           inkscape:connector-curvature="0"
           id="path3589"
           d="m 479.68,426.68 -4.18,9.91 c -0.15,0.41 -0.25,0.59 -0.25,0.64 0,0.31 0.85,1.25 2.94,1.45 0.5,0.05 1,0.1 1,0.96 0,0.59 -0.61,0.59 -0.75,0.59 -2.05,0 -4.19,-0.16 -6.28,-0.16 -1.25,0 -4.33,0.16 -5.58,0.16 -0.29,0 -0.9,0 -0.9,-1 0,-0.55 0.5,-0.55 1.15,-0.55 2.99,0 3.28,-0.5 3.74,-1.59 l 5.87,-13.91 -10.51,-11.31 -0.64,-0.55 c -2.44,-2.64 -4.79,-3.43 -7.33,-3.57 -0.64,-0.05 -1.1,-0.05 -1.1,-1 0,-0.05 0,-0.55 0.66,-0.55 1.48,0 3.12,0.16 4.67,0.16 1.85,0 3.8,-0.16 5.58,-0.16 0.31,0 0.91,0 0.91,1 0,0.5 -0.5,0.55 -0.6,0.55 -0.45,0.04 -2,0.14 -2,1.54 0,0.8 0.75,1.6 1.35,2.24 l 5.07,5.39 4.49,4.87 5.03,-11.9 c 0.2,-0.55 0.25,-0.6 0.25,-0.71 0,-0.39 -0.94,-1.23 -2.89,-1.43 -0.55,-0.05 -0.99,-0.11 -0.99,-0.96 0,-0.59 0.55,-0.59 0.74,-0.59 1.41,0 4.89,0.16 6.28,0.16 1.25,0 4.28,-0.16 5.53,-0.16 0.35,0 0.95,0 0.95,0.95 0,0.6 -0.5,0.6 -0.9,0.6 -3.33,0.04 -3.44,0.2 -4.28,2.18 -1.94,4.64 -5.28,12.41 -6.42,15.39 3.39,3.5 8.6,9.43 10.2,10.82 1.45,1.2 3.34,2.39 6.33,2.54 0.65,0.05 1.09,0.05 1.09,1 0,0.05 0,0.55 -0.64,0.55 -1.5,0 -3.14,-0.16 -4.69,-0.16 -1.84,0 -3.73,0.16 -5.53,0.16 -0.3,0 -0.94,0 -0.94,-1 0,-0.34 0.25,-0.5 0.6,-0.55 0.45,-0.04 2,-0.15 2,-1.54 0,-0.71 -0.55,-1.35 -0.96,-1.8 z" /><path
           style="fill:#000000;stroke-width:0"
           inkscape:connector-curvature="0"
           id="path3591"
           d="m 514.4,405.11 h -1.19 c -0.1,-0.77 -0.46,-2.83 -0.91,-3.18 -0.27,-0.2 -2.95,-0.2 -3.44,-0.2 h -6.42 c 3.66,3.23 4.88,4.2 6.97,5.84 2.58,2.07 4.99,4.22 4.99,7.54 0,4.21 -3.69,6.79 -8.16,6.79 -4.31,0 -7.25,-3.03 -7.25,-6.23 0,-1.78 1.5,-1.96 1.86,-1.96 0.83,0 1.84,0.6 1.84,1.85 0,0.62 -0.25,1.84 -2.06,1.84 1.08,2.47 3.45,3.24 5.09,3.24 3.49,0 5.3,-2.71 5.3,-5.53 0,-3.04 -2.16,-5.44 -3.28,-6.69 l -8.39,-8.3 c -0.36,-0.31 -0.36,-0.39 -0.36,-1.36 h 14.36 z" /></g>    </g>
    <g
       transform="matrix(1.2659754,0,0,1.2659754,-77.89956,820.0305)"
       id="g3871">
      <g
         style="font-style:normal;font-variant:normal;font-weight:normal;font-stretch:normal;letter-spacing:normal;word-spacing:normal;text-anchor:start;fill:none;stroke:#000000;stroke-linecap:butt;stroke-linejoin:miter;stroke-miterlimit:10.43299961;stroke-opacity:1;stroke-dasharray:none;stroke-dashoffset:0"
         id="g3873"
         transform="matrix(0.28571429,0,0,-0.28571429,-50,262.5)"
         xml:space="preserve"
         stroke-miterlimit="10.433"
         font-style="normal"
         font-variant="normal"
         font-weight="normal"
         font-stretch="normal"
         font-size-adjust="none"
         letter-spacing="normal"
         word-spacing="normal"><path
           style="fill:#000000;stroke-width:0"
           inkscape:connector-curvature="0"
           d="m 485.27,434.54 0.69,0.71 c 1.5,1.5 3.14,3.18 6.53,3.43 0.55,0.05 1,0.05 1,0.96 0,0.39 -0.25,0.59 -0.66,0.59 -1.29,0 -2.73,-0.16 -4.08,-0.16 -1.64,0 -3.39,0.16 -4.98,0.16 -0.3,0 -0.95,0 -0.95,-0.95 0,-0.55 0.5,-0.6 0.75,-0.6 0.34,0 1.79,-0.09 1.79,-1.14 0,-0.86 -1.14,-2.14 -1.34,-2.39 l -11.56,-13.31 -5.49,14.8 c -0.29,0.7 -0.29,0.79 -0.29,0.84 0,1.2 2.43,1.2 2.93,1.2 0.71,0 1.21,0 1.21,1 0,0.55 -0.6,0.55 -0.75,0.55 -1.39,0 -4.88,-0.16 -6.28,-0.16 -1.24,0 -4.33,0.16 -5.58,0.16 -0.3,0 -0.94,0 -0.94,-1 0,-0.55 0.48,-0.55 1.14,-0.55 2.98,0 3.19,-0.45 3.64,-1.68 l 6.13,-16.41 c 0.04,-0.14 0.2,-0.69 0.2,-0.84 0,-0.14 -2,-8.18 -2.25,-9.07 -0.64,-2.73 -0.69,-2.89 -4.69,-2.93 -0.94,0 -1.34,0 -1.34,-1 0,-0.55 0.61,-0.55 0.7,-0.55 1.39,0 4.88,0.16 6.28,0.16 1.39,0 4.99,-0.16 6.38,-0.16 0.34,0 0.93,0 0.93,1 0,0.55 -0.43,0.55 -1.39,0.55 -0.09,0 -1.04,0 -1.89,0.09 -1.04,0.11 -1.34,0.2 -1.34,0.8 0,0.36 0.45,2.09 0.7,3.14 l 1.74,7.03 c 0.25,0.94 0.29,1.09 0.7,1.55 z"
           id="path3875" /><path
           style="fill:#000000;stroke-width:0"
           inkscape:connector-curvature="0"
           d="m 496.11,420.92 0,0.04 0,0.04 0,0.05 0,0.04 0,0.03 0,0.04 0,0.04 0,0.03 0,0.04 0,0.03 -0.01,0.03 0,0.03 0,0.03 0,0.03 -0.01,0.03 0,0.02 -0.01,0.03 0,0.02 -0.01,0.03 0,0.02 -0.01,0.04 -0.02,0.04 -0.02,0.03 -0.01,0.03 -0.03,0.03 -0.02,0.03 -0.03,0.02 -0.03,0.02 -0.03,0.02 -0.04,0.01 -0.04,0.01 -0.04,0.02 -0.03,0 -0.02,0 -0.03,0.01 -0.02,0 -0.03,0.01 -0.03,0 -0.03,0 -0.03,0 -0.03,0 -0.04,0.01 -0.03,0 -0.04,0 -0.03,0 -0.04,0 -0.04,0 -0.04,0 -0.04,0 -0.04,0 -0.05,0 -0.04,0 c -2.24,-2.2 -5.39,-2.23 -6.83,-2.23 v -1.25 c 0.84,0 3.14,0 5.05,0.97 v -17.77 c 0,-1.16 0,-1.61 -3.49,-1.61 h -1.31 v -1.25 c 0.62,0.03 4.9,0.14 6.2,0.14 1.08,0 5.47,-0.11 6.24,-0.14 v 1.25 h -1.33 c -3.49,0 -3.49,0.45 -3.49,1.61 z"
           id="path3877" /></g>    </g>
    <g
       transform="matrix(1.2659754,0,0,1.2659754,-80.6487,723.81057)"
       id="g4165"
       inkscape:transform-center-x="-37.413708"
       inkscape:transform-center-y="130.51293">
      <g
         style="font-style:normal;font-variant:normal;font-weight:normal;font-stretch:normal;letter-spacing:normal;word-spacing:normal;text-anchor:start;fill:none;stroke:#000000;stroke-linecap:butt;stroke-linejoin:miter;stroke-miterlimit:10.43299961;stroke-opacity:1;stroke-dasharray:none;stroke-dashoffset:0"
         word-spacing="normal"
         letter-spacing="normal"
         font-size-adjust="none"
         font-stretch="normal"
         font-weight="normal"
         font-variant="normal"
         font-style="normal"
         stroke-miterlimit="10.433"
         xml:space="preserve"
         transform="matrix(0.28571429,0,0,-0.28571429,-50,262.5)"
         id="g4167"><path
           style="fill:#000000;stroke-width:0"
           inkscape:connector-curvature="0"
           id="path4169"
           d="m 485.27,434.54 0.69,0.71 c 1.5,1.5 3.14,3.18 6.53,3.43 0.55,0.05 1,0.05 1,0.96 0,0.39 -0.25,0.59 -0.66,0.59 -1.29,0 -2.73,-0.16 -4.08,-0.16 -1.64,0 -3.39,0.16 -4.98,0.16 -0.3,0 -0.95,0 -0.95,-0.95 0,-0.55 0.5,-0.6 0.75,-0.6 0.34,0 1.79,-0.09 1.79,-1.14 0,-0.86 -1.14,-2.14 -1.34,-2.39 l -11.56,-13.31 -5.49,14.8 c -0.29,0.7 -0.29,0.79 -0.29,0.84 0,1.2 2.43,1.2 2.93,1.2 0.71,0 1.21,0 1.21,1 0,0.55 -0.6,0.55 -0.75,0.55 -1.39,0 -4.88,-0.16 -6.28,-0.16 -1.24,0 -4.33,0.16 -5.58,0.16 -0.3,0 -0.94,0 -0.94,-1 0,-0.55 0.48,-0.55 1.14,-0.55 2.98,0 3.19,-0.45 3.64,-1.68 l 6.13,-16.41 c 0.04,-0.14 0.2,-0.69 0.2,-0.84 0,-0.14 -2,-8.18 -2.25,-9.07 -0.64,-2.73 -0.69,-2.89 -4.69,-2.93 -0.94,0 -1.34,0 -1.34,-1 0,-0.55 0.61,-0.55 0.7,-0.55 1.39,0 4.88,0.16 6.28,0.16 1.39,0 4.99,-0.16 6.38,-0.16 0.34,0 0.93,0 0.93,1 0,0.55 -0.43,0.55 -1.39,0.55 -0.09,0 -1.04,0 -1.89,0.09 -1.04,0.11 -1.34,0.2 -1.34,0.8 0,0.36 0.45,2.09 0.7,3.14 l 1.74,7.03 c 0.25,0.94 0.29,1.09 0.7,1.55 z" /><path
           style="fill:#000000;stroke-width:0"
           inkscape:connector-curvature="0"
           id="path4171"
           d="m 502.04,405.11 h -1.19 c -0.1,-0.77 -0.46,-2.83 -0.91,-3.18 -0.26,-0.2 -2.95,-0.2 -3.44,-0.2 h -6.42 c 3.66,3.23 4.88,4.2 6.97,5.84 2.58,2.07 4.99,4.22 4.99,7.54 0,4.21 -3.69,6.79 -8.16,6.79 -4.31,0 -7.25,-3.03 -7.25,-6.23 0,-1.78 1.5,-1.96 1.86,-1.96 0.83,0 1.84,0.6 1.84,1.85 0,0.62 -0.25,1.84 -2.06,1.84 1.08,2.47 3.45,3.24 5.09,3.24 3.49,0 5.3,-2.71 5.3,-5.53 0,-3.04 -2.16,-5.44 -3.28,-6.69 l -8.39,-8.3 c -0.36,-0.31 -0.36,-0.39 -0.36,-1.36 h 14.36 z" /></g>    </g>
  </g>
</svg>
